<svg xmlns="http://www.w3.org/2000/svg" viewBox="0 0 1100 905.2"><path d="M248.6 704.2c-1.3-.9-2.2-3.4-1.6-4.8l.6-2.6c.2-1 1.4-3.7 2.7-5.8a30 30 0 0 0 2.7-6.2 136.9 136.9 0 0 0 7.2-20.6 201.7 201.7 0 0 1 3-9.7c.2-.5 1-2.5 2-4.3a28 28 0 0 0 2.8-10.1 17 17 0 0 1 1.6-4.6c1.2-2.2 1.3-3.1 1.8-12.1.4-8.3.6-10.2 1.5-11.9.6-1.2 1.2-3.6 1.4-6.4.3-2.4.8-5.5 1.2-6.9.3-1.4.8-3.4.9-4.4 0-1 .4-3.1.7-4.8l.9-7.5a22 22 0 0 1 1.8-7.7c.8-1.8 2.1-5.3 2.9-7.8a53 53 0 0 1 1.8-5.4l.9-3.6a16.3 16.3 0 0 1 1.5-4.8c.2-1.3 1-2.7 2.1-4.1.8-1 1.5-2.6 1.8-4.2.3-2.2.3-2.5-.5-2.5-.6 0-1-.4-1-1.3l-.3-3.3c-.2-1.9-.2-2 1-1.7.8.2 1.7.1 2.1-.2 1.2-.8 1.8-5.4 1-6.6-.8-1.2-2.4-.8-2.5.5 0 .7-.6 1.2-1.8 1.5-1.5.4-1.9.8-2 1.7 0 .7-.2 1.3-.4 1.5-.2 0-.3-1-.2-2.5 0-1.8.5-3.2 1.3-4.4.7-1 1.1-2.1 1-2.5-.7-1.8-.7-2.7-.2-2.6.4 0 .6-.5.7-1 0-.6.3-1.1.5-1.3.3-.2.6-1 .7-1.8 0-1.2-.2-1.6-.9-1.5-.6.1-1.1 1-1.6 2.8-.8 3-3.5 6.4-4.6 5.8l-1.4-.5c-.4 0-1-.4-1.3-.7-1-1.2-2.4-.8-4 1.3-.8 1.1-2.5 3-3.7 4-1.2 1-2.4 2.5-2.6 3.1-.2.7-1.2 2.8-2.2 4.7-1 2.1-2 4.7-2.3 6.7-.2 1.9-1 4.8-1.8 6.4l-1.6 4.3a23 23 0 0 1-2.5 4.6c-1.2 1.8-3.1 5-4.2 7-2.5 4.6-3.7 6.7-5.3 9.3a80.5 80.5 0 0 0-7 16.5c0 .5-.8 2.3-1.6 3.9l-2.6 5.2c-1.3 2.9-2 3.9-4.3 6.8-1 1.3-2.7 4.6-3.8 7.4-1.1 2.7-2.4 5.5-2.8 6.1-.5.6-1 2.3-1.3 3.7-1.5 8.3-6.9 13.8-9.8 10a14.2 14.2 0 0 1-2.5-6c0-1.5 2.2-4.9 4.5-7.2a22 22 0 0 0 3.3-4.3c.6-1.1 1.4-2.4 1.9-2.7.4-.3.8-.8.8-1.1 0-1 3.5-7.1 5-8.9 1.7-1.8 3.6-6.6 5.1-12.4a43 43 0 0 1 2.9-7.1 132.5 132.5 0 0 1 8.7-17.7c.4-.8.8-1.7.8-2 0-.4.6-1.3 1.3-2 1.1-1 1.4-2 2-6.6 1-8.2 1-8.4 1.8-9.7.4-.7 1.9-2.6 3.4-4.4 1.5-1.8 2.6-3.6 2.6-4.2 0-.7.9-3 2-5.2 2.2-4 2.2-4 2-8.7 0-2.6.2-5.4.6-6.3.7-2 4.1-6 5.7-6.7 1.7-.6 2.5-2 3-5.2.5-4.2 0-4.8-3.3-4.5-5.2.5-10 3.3-10 5.9 0 .4-.3.9-.6 1l-.9 1.8c-.4 1.6-.7 1.8-2.5 1.5-1-.2-4 1.7-4.1 2.5 0 1-4.9 10-6.4 12-1.9 2.6-2.6 5.4-1.5 6.6 1.2 1.5.7 3.6-1.3 6.2l-3.4 5c-.8 1.6-2.7 4-4.1 5.6a31.1 31.1 0 0 0-3.9 5 12 12 0 0 1-2 2.9c-.6.5-.7.4-.7-.7.1-1.8-4-3.9-8.3-4-2.6-.2-3.7 0-6.5 1.5-4 2-5.7 4.1-7.8 9.8-1.2 3.3-2 5-3.4 7.4l-5.8 6.4c-3 3.1-6.1 6.6-7 7.6a60.9 60.9 0 0 0-6.7 9.2c-1 1.4-2.5 4-3.2 5.7-.8 2-1.7 3.4-2.3 3.5-.5.2-1.3 1-1.9 1.7-.5.8-1.8 1.8-2.9 2.2-1.7.6-2.2.5-4.6-.3-2.9-1-3.5-2-3.3-5.9 0-2 .4-2.5 3.2-5.2 1.7-1.6 3.3-2.9 3.7-2.9.4 0 .7-.1.7-.4 0-.2.8-.8 1.8-1.3 2.3-1.1 4.5-3.4 5.9-5.7.6-1 1.4-2 1.8-2.3.4-.2 1.4-1.7 2.2-3.2.8-1.6 2-3.3 2.7-3.8.8-.5 1.5-1.7 1.8-2.7.2-1 .8-2.4 1.4-3 2-2.4 4.5-7.9 5-10.6a33 33 0 0 1 7.1-13.9c1.8-1.7 3.3-3.5 7.2-8.7a57 57 0 0 1 4-5 13 13 0 0 0 2.3-3.2c.5-1 2.2-3.2 3.8-4.7a23.7 23.7 0 0 0 5-6.6c1.2-1.8 1.1-3-.3-6.2a7.5 7.5 0 0 0-4-4.4c-1.6-.8-3-2-3.1-2.5-.5-1.4 1.1-4.3 3.8-6.9 1.5-1.4 2.4-2.7 2.4-3.6 0-1.6 1-3.3 1.9-3.2.3 0 1.6-.8 3-1.7 1.2-1 3-2 4-2.2 2.1-.7 2.4-2.3.5-2-.7 0-1.2-.2-1.2-.5 0-1-1.8-.7-3.7.5-1 .7-2.6 1.6-3.7 2.1a30.8 30.8 0 0 0-9 9.5c-1.7 2.9-3.2 4.4-8 8.1a16.2 16.2 0 0 0-4 4c-.3.8-1.5 2.2-2.5 3a92.7 92.7 0 0 0-9.2 8.7c-.5.7-1.7 1.6-2.7 2-1 .4-2.5 1.6-3.4 2.7-.9 1.2-4 4.4-7 7.2-5.2 5-5.6 5.2-9.3 6.2-2.5.6-4.5 1.5-5.8 2.6a48.9 48.9 0 0 0-9.4 7.2c-6.1 5.5-9 7.6-9.6 7.2-.3-.2-.7-.1-1 .2-.6 1-3.8-2.4-4-4.3-.2-1 0-2 .3-2.6.5-.9 7.5-5.5 10.3-6.7.9-.4 5.6-4.4 10.6-8.8a60 60 0 0 1 18-12.7c2-1 2.9-1.8 3.7-3.5 2-4.3 3-5.6 4.7-6.7a7 7 0 0 1 3-1c1 0 1.5-.5 2.2-1.9a50 50 0 0 1 6.8-8.6 35 35 0 0 0 4.4-6c0-.3 1.5-1.4 3.3-2.6 1.9-1.2 4.4-3.3 5.6-4.7 2-2.4 3.1-3.5 8-8.3 1.1-1 2.4-2.8 2.8-4l.8-1.9-2.4-2.7c-2.1-2.3-2.5-2.6-3.4-2-1.6.8-2.6.5-3-.9-.4-.9-.9-1.3-1.7-1.4-.7 0-2.7-.6-4.5-1.2a12 12 0 0 0-7.1-.9 56.6 56.6 0 0 1-17.4 1c-8.9-.5-11.4 0-14.5 2.5-1 .9-2.9 2-4 2.3-1 .4-2.6 1.3-3.6 2-1.3 1.1-2.1 1.4-3.1 1.2-.8-.2-3.2.1-5.4.7-3 .8-4.5 1.5-6 2.8-2.7 2.7-5.5 3.4-13 3.3a44.8 44.8 0 0 0-21.3 3.8c-.2 0-1.3.5-2.5 1.3-3.7 2.2-9.1 1-9-2 .1-1.4 1.6-3.5 3.2-4.6 1-.7 2.5-.9 6.3-.9 5.4 0 6.2-.2 9-2.7a15 15 0 0 1 9.1-3.6c1.5 0 3.5-.4 4.3-.8.9-.3 2.7-.7 4-.8 1.8-.2 3.4-.9 5.6-2.4a20 20 0 0 0 3.3-2.7c.1-.2.5-.4.9-.4a9 9 0 0 0 3-1.8c1.2-1 3.2-2.3 4.4-2.8 6.5-3.1 6.7-3.2 13.4-3.2 7.3 0 9.5-.8 14.7-4.6l3.9-2.4c.5-.2 1-.8 1-1.4 0-1.1-2.5-4-4-4.6-.5-.2-1-.8-1.2-1.3-.2-.6-.6-1-.9-1.1a7.3 7.3 0 0 1-3.8-1.5 81 81 0 0 0-13.4-4.9c-1-.2-2.2.1-3.7.9a28 28 0 0 1-5.4 2c-1.7.3-4 1-4.9 1.5-1 .5-2.3 1-2.9 1-.6-.1-1.7.1-2.5.5s-2.3.9-3.4 1.2c-1.1.3-3 1.3-4.3 2.2a58 58 0 0 1-8 4.1 105 105 0 0 0-8.6 4.3c-2.8 1.7-3 1.7-6.3 1.3-1.8-.3-6-.8-9.5-1a23 23 0 0 0-9.3.3c-1.8.5-3.9.7-4.7.6a502.1 502.1 0 0 0-15.7-2.6c-2-.3-4.7-.9-5.8-1.3-2.4-.8-6.1-.7-10.4.3-4 1-5.7.5-7-1.8-1.7-3.3-.8-5.5 3.3-7.7 2.3-1.2 3-1.3 7.3-1 2.7.2 5.5.6 6.2.9 1.6.7 11.5.4 13.1-.4.6-.3 2.2-.5 3.6-.4 1.3 0 3.6-.3 5-.8a50 50 0 0 1 9.2-1.1c3.5-.2 6.7-.5 7-.7.3-.2 2-.9 3.7-1.4a31 31 0 0 0 5.4-2.4c5-3 6.2-3.3 14-3.9 2.2-.1 5.1-.7 6.5-1.2 1.3-.6 4.2-1.2 6.3-1.5 2-.3 4-.8 4.4-1 2.4-1.7 14.3-1.4 21.1.5 2.4.6 3.6.7 6.2.3 1.8-.3 3.5-.7 3.7-.9.2-.2.7-1.7 1-3.4l.8-3.8c.2-.7-.4-.8-3.8-.8-2.5 0-4-.2-4-.5s.7-1.9 1.4-3.4c1-2.5 1.1-3 .5-3.4-.8-.6-5.3-.4-6.8.3-.5.2-3.3.5-6 .6-2.9.1-5.7.5-6.3.7-.6.3-2.2.5-3.6.4a15 15 0 0 0-6.2 1.3l-3.6 1.4-4.5-.8c-4.2-.8-4.7-.8-7.2 0l-5.8 2-5.8 1.8-7.7 2a94.9 94.9 0 0 0-15 4.7c-1.9.7-3.8 1.3-4.2 1.3-.5 0-2.3.5-4.1 1.2-2.3.9-4.2 1.2-6.4 1-5.1-.2-6.7-2-4.8-5.4 1.5-2.7 3.7-3.5 9.2-3.3 3.3.2 4.7 0 5.3-.5.5-.4 1.1-.7 1.5-.7 2.5 0 4.2-4 2.8-6.6-1.3-2.2-1.1-3.3.6-4.8 1.6-1.5 1.4-1.4 5.4-1.1 4.1.3 12-1.3 16-3.2a51 51 0 0 1 14.2-2.4c2.2-.2 6 1 8.9 2.8 1.3.9 1.7.9 6 .2 2.5-.4 5.5-1.2 6.6-1.8 2-1 2.5-1 10.1-.5l11.6.9c3.5.3 6 0 6-1 0-.2-.7-1-1.6-1.6-1.1-.8-1.4-1.1-.7-1.1.5 0 .9-.2.9-.5s-.5-.5-1.1-.6c-1.3 0-1.9-.4-2.9-1.8-.8-1.2 0-2.2 2.6-3.1 1.6-.6 1.7-.8 1.7-2.5-.1-2.6-1.3-3.4-3.4-2.3l-1.6.8-.7-1.6c-1.8-4 2.4-7 9.5-7 3 0 3.8-.6 3-2.2-.6-1.4.4-2.7 1.7-2.4.5 0 1.7-.5 2.7-1.2 1.5-1.2 2-1.3 3.6-1 1 .3 2 .6 2.1.8.5.6-.7 3.7-1.4 3.7-.4 0-1 .5-1.3 1.2-.6 1-.6 1.4 0 1.6.4.2 1.2 0 1.6-.4 1.2-1 3.7-1.4 5-.6 1.3.8 2.8 0 2.9-1.5 0-.8.6-1.5 1.8-2.2 1.1-.6 1.7-1.3 1.7-2.2.1-1.1.5-1.4 2.6-2 1.8-.5 2.6-1 2.7-1.7.2-1-.1-1.2-2.2-1.6-1.5-.3-2.6-.3-3 0-.7.8-2.4.6-3.8-.3-1-.6-1.1-.7-.3-1.4 1.3-1 2-2.8 2.6-6.8.4-3.3.6-3.6 1.7-3.7a3 3 0 0 1 2 .6c1.4 1.3 2.6 1.6 3 .8.2-.4 1-1 1.8-1.4 1.5-.6 1.5-.6 1.6 1l.5 2.6c.3.7 0 1-1.6 1.6-1 .4-2.4.6-2.9.4-.4-.1-1.2 0-1.6.2-.6.3-.6.5 0 1.1 1 1 7.3 1 7.3-.1 0-.4.3-.7.7-.7.4 0 1.3-.7 2.1-1.5s1.7-1.3 2-1.2c.9.6.5 3-.7 4.5-.7.8-1 1.8-1 2.4.4 1.1 2.3 1.9 3.7 1.5 1.6-.5 4.5-2.6 4.5-3.3 0-.4.7-1.3 1.5-2 1.2-1.4 1.4-1.7 1.2-4.5 0-1.7-.3-3.3-.4-3.6-.2-.3-1.2-.5-2.3-.6-1.6 0-2.2.2-3.3 1.5-1.3 1.4-1.4 1.5-2.6.7-1.8-1.3-6.7-2.6-7-1.9 0 .4-.8.1-2-.7-2-1.6-3.9-1.9-4.3-.8-.2.3-1.2 1-2.2 1.6-1.6.9-2 .9-2.1.2-.5-1.3-.2-2.6.6-3.2 1.3-1 1-1.7-.7-1.4-.9.2-1.6 0-1.5-.2 0-.3-.7-.8-1.6-1.2l-4-2.5a30.2 30.2 0 0 0-10.3-5.4c-.8 0-2.5-.7-3.6-1.5a8.4 8.4 0 0 0-4.8-1.5c-4-.2-9.2-1.5-11-2.6a26.7 26.7 0 0 0-10-3.3c-3.8-.5-6.5-1.1-7.6-1.7a161 161 0 0 0-17-4.7 9.2 9.2 0 0 1-3.1-.9c-.8-.7-7.1-2.4-9-2.5-1.7-.1-5-3.1-5-4.5 0-.4 1.4-1 3.2-1.5l3-.8 6 2.2 8.6 3.3c3.2 1.3 7.4 2.4 10 2.5 1 0 2 .3 2.3.6.6.6 8.2 2.5 12 3 4 .5 4.9.8 6.1 1.5a32 32 0 0 0 8.2 3c.7 0 3.1.6 5.4 1.3a85.5 85.5 0 0 0 8.6 2.3c.8.3 1 .1.8-1.5-.1-1.5 0-1.7.6-1.2.3.3.8 1.2 1 1.8.3.7.9 1.4 1.4 1.6l2.3 1.2a22 22 0 0 0 4 1.7l5.5 1.7c3.5 1.2 5.6 1.3 7 .4.7-.4 1.5-.7 1.8-.6.4 0 .7-.2.8-.6 0-1 2.3-1.2 3-.4.8.8 1.4.7 1.4-.2 0-1-3.5-5-4.6-5.1-.4 0-1.5.5-2.4 1.2l-1.8 1.2c-.1 0-.8-1.3-1.4-2.8a19.7 19.7 0 0 0-6.4-7.7c-3-2.1-.2-2.5 4.6-.5a17 17 0 0 0 5 1.3c1.6 0 2 .2 2.3 1.3.5 1.4 3.8 4.1 5.1 4.2.5 0 2 .9 3.4 2 1.4 1 3 1.9 3.4 2 .7 0 2.5 1.3 4.8 3.5 1.1 1 3.8.9 6.2-.4 1.7-.8 2.8-.4 3.7 1.4 1 2.2 2.2 4 2.6 4 .3 0 .6-.6.8-1.4a11 11 0 0 1 2.6-3.6 26 26 0 0 0 2.8-3.1c.3-.5 1-.9 1.5-.8 1.3 0 3.7-1 3.7-1.5 0-.2.4-.4.8-.4 1.9.1 0-4.6-3.3-8.2-2.8-3.1-5-6.3-5-7.2 0-.4-2.6-3.4-5.7-6.8l-6.5-6.8c-5-5.5-16.3-18.4-16.2-18.7 0-.3-1.1-1.3-2.5-2.3a9.7 9.7 0 0 1-2.8-2.8 22 22 0 0 0-5.4-5.3l-2.7-2.2a30 30 0 0 0-4.7-3.4c-2.2-1.2-2.6-1.7-3-3.3-.5-2.5.4-3.5 3-3.4 2.3.2 3.2.7 7.6 5.1 4.6 4.6 6.4 6.7 13.2 15a298.4 298.4 0 0 0 15.8 18.4c2.4 2.8 5 5.5 5.7 6 1.5 1 7.2 7.1 10 10.7 1.3 1.5 2.3 2.3 3.2 2.3 1.4 0 1.5 0 .8-1.5l-1-2.1-.4-2c0-.5-.5-1.8-1.1-2.8a8 8 0 0 1-1.2-2.2 9 9 0 0 0-1.4-2.4c-.8-1.1-1.7-3.1-2.2-4.5-.4-1.3-1.2-2.9-1.7-3.4s-.9-1.6-.8-2.4c0-1.8-.7-3.6-4.1-9.4-3-5-3.7-6-5.3-6.9-.6-.3-1.9-2-2.9-3.6a11 11 0 0 0-2.8-3.5c-.6-.2-2.9-1.6-5-3a26 26 0 0 0-4.5-2.6c-1 0-3.4-1.8-5-3.4a32.3 32.3 0 0 0-8.6-5.8c-.7-.2-1.5-.6-1.6-1-.2-.2-1-.4-2-.5-1.4 0-2.2-.6-4.8-3.7-4-4.8-5.8-7.2-5.8-8 0-1.2 2.3-3.1 3.7-3 1.8 0 6.7 2.1 8 3.4a16 16 0 0 0 3.4 2.2c1.4.7 2.8 1.5 3 1.9l3.1 3c1.4 1.3 2.7 2.8 2.8 3.3.3 1 3.6 3 6.7 4 1.6.4 2.9 1.4 4.5 3.3a27 27 0 0 0 4.5 4.1c1.1.8 2.1 1.6 2 1.8a32 32 0 0 0 3.5 4.4c1.9 2.2 5 6.2 6.8 8.9a125 125 0 0 0 10.2 12.9c1 1.2 2.1 2.8 2.5 3.7.4.8 1.5 2.5 2.5 3.8 1 1.2 1.8 2.7 1.8 3.2 0 1.5 4.5 7.5 7 9.2l2.7 2.2c1 1 3.4 2.4 3.8 2 .7-.6.3-1.6-1.6-4a13.5 13.5 0 0 1-2.4-4.5l-.7-3.6c-.2-1-1.2-2.7-2.1-4-1-1.3-1.8-2.6-1.8-2.9 0-.3-.7-1.2-1.5-2-2-2.2-6-9-6.4-11-.2-1-1.2-2.3-3.3-4a14.6 14.6 0 0 1-3.6-4.3c-.6-1.8-2.8-4.5-3.5-4.6-.3 0-1.1-1-1.9-2.4a8.6 8.6 0 0 0-1.7-2.4 34 34 0 0 1-6.2-8.5c0-1 2-2 3.7-2 .7 0 1.9 1.5 3.6 4.5 1.8 3 3.2 4.7 4.2 5.2 2 1 2.5 1.8 2.7 3.7.2 2.1 1.2 3.8 3.9 6.2a25 25 0 0 1 4.4 6.3c1.2 2.3 2.5 4.3 2.9 4.5.3.2.6.5.6.8a35.9 35.9 0 0 0 11.4 14c1.3.8 2.4 2 2.9 3.2a5 5 0 0 0 2.9 2.9c2.1 1 3.2.8 4.6-.8.4-.4 1.1-.7 1.6-.7.4 0 1.3-.7 1.9-1.7 1-1.7 1-1.9.3-4.8-.4-1.6-.9-4.2-1-5.7-.2-1.7-1-3.7-2.2-5.7l-3-5.2c-2.5-4.5-4.6-7.3-6.1-8.1-1-.5-2.6-1.7-3.7-2.7-4.3-3.8-5-4.2-7.7-5.4a60.3 60.3 0 0 1-16.3-13.4c0-1 1.2-1.7 2.2-1.4.6.2 1.8 1.6 2.7 3.2 1.7 3 4 5 6 5.1 1 0 1.2-.2 1.3-2.4.1-1.8-.1-2.8-.8-3.5a8 8 0 0 1-1.5-2.4c-.3-.9-.7-1.6-1-1.6-.2 0-.6-.8-1-1.7a24 24 0 0 0-3.1-4.8 28 28 0 0 1-3.6-5.7c-2.6-6.6-7.1-13.9-9.6-15.4-.7-.5-1.9-2.1-2.6-3.6a46 46 0 0 0-7-10.1c-3-3.2-2.5-6.5.9-7.5 2.3-.7 4 .4 4.8 2.9.3 1 1 2.8 1.8 3.8.7 1 1.2 2 1.2 2.3 0 .3.1.6.3.7.3.2 1.4 1.8 2.7 3.7l6.7 10a38.7 38.7 0 0 0 7.7 10c.5.6 1.2 2.2 1.4 3.7.8 4.2 1.8 6.1 6 11.5 2.9 3.7 4.4 5.2 6.2 6.1 2.5 1.2 5.3 4.2 9 9.6a87 87 0 0 0 9 10.6c2.3 2.3 7.6 5 8.5 4.2.8-.6 2.6.6 4 2.8.8 1.2 2.3 2.7 3.6 3.4l4.5 2.8c2.5 2 3.9 1.8 3.5-.3-.2-.8-.5-3-.6-4.8-.5-6.6-2-12.5-4.2-16.7-1-1.8-1.2-3-1-5.3.2-5.3-1.5-11.2-6.4-21.4a56 56 0 0 1-3.2-8.3c-1-3.7-2.3-8-3.4-11-1-2.4-1.8-5.7-2.2-9-.2-1-1-4-2-6.5-1.7-4.8-2-6.8-.7-7.8 1-.7 3-.2 4 1 .4.3 1 2.4 1.2 4.5.5 4.6 1.8 9 3.1 10.8.6.9 1 2.1.9 3.5-.1 2.6 1.6 9 4 14.9 1 2.4 1.8 4.7 1.8 5.1 0 .7.7 2.9 3.8 10.5 1.3 3.2 2.3 8.3 2.5 12.4 0 2.8 1.4 7 3.4 11.4a124.3 124.3 0 0 0 6.8 18.2c.4.8 3.2 5 4.2 6.3 3.1 4.1 10.4-4.6 7.7-9.2-.7-1.2-.7-2.4-.4-9.8a30 30 0 0 0-.4-6.2c-.3-1.5-.8-4.3-1-6.2-.3-1.8-1-5-1.7-7s-1.4-5-1.5-6.6c-.2-1.6-.6-3.5-1-4.3a7 7 0 0 1-.5-2.7c0-.7-.4-2.4-.9-3.7-1.9-5.1-.5-7 3.4-4.8l2 1.2-.2 3.5a39 39 0 0 0 1.7 15.5c.8 1.5 1 2.9 1 4.2-.2 1 0 2.5.3 3.1.3.7.6 2.3.7 3.7.2 1.3.8 3.8 1.4 5.4 1 2.6 1 3.3.5 8-.6 4.7-.5 5.5.5 8.6 2.2 6.7 4.1 10 5.3 9a71.9 71.9 0 0 0 1-26c-.3-7.5-.8-10.7-2.2-15.7a36 36 0 0 1-1.3-12.2c0-4.4-.2-8.4-.6-9.6-.4-1.2-.7-5.3-.8-9.1a648 648 0 0 0-.5-12.2c-.2-4.6-.1-5.4.8-7 1.2-2 2.7-2.3 4.4-.6l1.4 1.2-.5 13.7c-.3 8.5-.3 14.2 0 15.2.3.8.4 3.3.3 5.7 0 2.3 0 5.1.3 6.3.2 1.1.5 3.7.5 5.7s.2 4.3.4 5.2l.9 4.7a66 66 0 0 0 1 5.4c.4 1.3.6 3.7.5 5.3 0 2 .2 3.7.8 5.1.6 1.2 1.1 3.3 1.3 4.8.2 2 .6 3.1 1.6 4 .8.8 1.5 2.2 1.8 3.1a7 7 0 0 0 1.1 2.7c.6.6.6 1 .2 1.7-.7 1.2-.4 1.6.9 1.3.6 0 1-.8 1.3-1.8l1.4-5.4c.9-3.2 1-4.1.5-5.8-.5-1.6-.4-2.2.2-3.3 1-1.6 2-2 2.8-1.2.3.3.5 2.4.4 4.6 0 2.2 0 5.3.3 6.9.3 1.5.4 3.5.2 4.4-.5 2.1 0 2.8 2 2.6l1.8-.2-.2-2.4c-.2-1.3-.4-2.9-.6-3.4-.2-.6 0-2 .3-3.1.4-1.4.5-4.2.3-8.3-.2-3.4 0-12.5.2-20.2.5-12.8.6-14 1.5-14.8 1.3-1.1 2.3-1 3.5.3 1 1 1 1.5.5 4.6a19 19 0 0 1-1.3 5c-1.3 2.3-2 9-1 11.4.4 1.5.5 3 .2 4.9-.3 2.2-.2 3 .5 3.5.7.7 1 .7 2.5.2l3-.8a4 4 0 0 0 2-.8c1-1.1 2.5-7.3 2.2-9.6 0-1.2.2-3.4.7-5 .5-1.5 1-4.3 1.2-6.2a651.7 651.7 0 0 1 2.3-22v-6.6c-.1-5.4 0-5.8 1-7 1.6-1.8 4.3-1.8 5 0 .8 1.8.1 7-1.1 9.3-1 1.8-1.1 3.8-1.7 17-.9 18.4-1.2 24.7-1.3 29.8 0 2.3-.4 4.5-.8 5.1-.5.9-.5 2.2-.2 5.9.2 2.6.6 5 1 5.3.5 1 3.4 1 4.7.2.8-.5.9-.9.4-2.4-1-3.6.1-7.1 2.1-6.2.6.2.7.8.5 2.2-1.3 6.2-1.4 7.2-.8 8 .4.4 1.1.8 1.7.9 1.4 0 6.2-2.9 6.2-3.8 0-1.5-.7-2.4-1.8-2-1.9.7-3.3.7-3.2 0 0-.5.7-.9 1.8-1 1.8-.3 2.4-1 2.5-2.9 0-.5.6-1.7 1.4-2.6a6 6 0 0 0 1.5-3.5c0-2.4 2.8-9.9 4.3-11.7.8-1.1 1.4-1.4 2.7-1.2 2 .3 2.3 2.1.7 4.1-.7.8-1.2 2-1.2 2.8 0 .8-.7 2.3-1.5 3.3s-1.7 3.1-2.1 5c-.4 1.9-1 3.8-1.3 4.4-1.3 2.4.4 4.4 3.9 4.5 1 .1 1.7.3 1.7.5.3 2 0 6.2-.6 6.4-.4.3-.3.7.3 1.3.7.8 1 .8 1.7.3.5-.4.8-1.2.7-1.7 0-.8.4-1.3 1.5-1.8 1.4-.6 1.6-1 1.7-2.8 0-1.1-.1-3-.3-4-.2-1.5 0-2.3 1-3.7l1.1-1.8 3.4 2c1.8 1.2 3.5 2.3 3.6 2.5.1.3 2 .6 4.1.8 3.3.3 4 .2 5.5-.7 1-.6 3-1.3 4.4-1.5 4-.6 7.7-2.5 10.8-5.6l6.5-6.2 3.7-3.5-1.3-.7c-2.8-1.6-1-4.4 3.5-5.5a17 17 0 0 0 10.7-7.4 41 41 0 0 0 3.8-6.1c1.2-3 2.6-4.2 4.2-3.7.7.2 1.3.7 1.5 1 0 .4-.8 2.5-2 4.8a25.8 25.8 0 0 0-2.3 4.9c0 .5-.6 1.9-1.3 3.2-1 1.8-1.6 2.3-3.2 2.7-1.5.3-2.2.8-3 2.2-.5 1-1 1.7-1.3 1.7-.3 0-.9.7-1.3 1.6a59.3 59.3 0 0 1-4.7 7.6c-.5.6-.7 1.7-.6 3.8l.2 3-1-1.5c-1-1.4-1-1.4-2.7-.7l-5.8 2c-3.7 1.1-4.6 1.6-7.3 4.2l-3 3 .7 2.8c.8 2.7.8 2.8 3 3 2 .3 2.1.2 1.8-.7-1.1-3.2-.3-3.9 1.1-.9.5 1 1.2 2 1.5 2a48.2 48.2 0 0 0 15.3-1c1.4-.6 7-1.1 9.6-1 1.5 0 4 0 5.5-.2l5.4-.6c1.4 0 2.9-.3 3.4-.6.4-.2 1.7-.4 2.9-.6 22.2-2 21.8-2 22.7-1 .5.5 1.2.8 1.8.7a47 47 0 0 1 4.5-.6c6.6-.6 7.8-.8 8.4-1.3.4-.2.9-.3 1-.2.3.2 2.3.1 4.6 0l7-.4c1.6 0 3.6-.3 4.6-.6.9-.2 3.1-.3 5-.1 2 .2 3.6 0 4-.3.5-.3 1-.5 1-.3a54.7 54.7 0 0 1 11-.6c6.4.1 8 0 8.9-.7 1-1 7.4-1 9.4-.2.7.3 1.3.4 1.5.1.2-.2 2.2-.4 4.6-.5l7.1-.2H643.5c1.1-.2 7.1-.1 13.3 0a322.5 322.5 0 0 0 22.6 0 635.5 635.5 0 0 0 61.5 1.7c5.6.6 8 .5 17.3 0 5.5-.4 13.4-.7 17.6-.7 7.7 0 7.7 0 7.4 1.1-.2.8-.1 1 .4.8.4-.1.7 0 .7.4 0 .3.4.5 1.2.3 1.7-.3 4 .8 3.9 2 0 1 .2 1 4.4 1.3 6 .3 9 .8 9.7 1.6 1.3 1 16.6 2.6 27.5 2.6.7 0 2.1.2 3 .5 1 .3 3.8.6 6.1.7 2.3 0 4.3.3 4.5.5.2.5 7.7.6 10.9.2 1.5-.2 3.3-.2 4.4.2l4 .9a69.4 69.4 0 0 0 11 1.6c8 .6 11.7 1.1 11.7 1.8 0 .2-.8.7-1.7 1.2-2 1-1.7 1.5 1.4 1.5 1.9 0 2.8.3 3.7 1.1 1 1 1.8 1.1 9 1.4 4.2.2 8.3.2 9 0 3.1-.6 6.7 1.1 6.9 3.5 0 1.1-.1 1.2-2 1-2.2-.3-4 .3-3.4 1 .2.3 2.1.6 4.3.8a176 176 0 0 1 15.6 2l7.9.9c3.7.1 4.1 0 5.1-1 1.2-1.5 3.8-1.7 4.5-.4.4 1 2 1.2 6.4 1 1.7-.1 3 0 3 .3s.5.8 1.3 1.2c.8.4 1.6 1 1.9 1.3.6.8 18.7 4.3 23.1 4.4 1.3 0 2.4.4 2.7.9.6.7.4 1-1 1.6-.9.5-1.6 1-1.7 1.3 0 .2-.6.3-1.4.3-1.4 0-4 .7-3 .8.3 0 .1.3-.3.5-1.3.8 1.8 1.9 6.5 2.2 5 .5 6.6 1.1 5.6 2.6-1 1.4-.2 2 3.9 2.8 3.5.7 5.7 2 4.2 2.4-.4.2-3.7.2-7.2.1-6.2 0-9.2.5-10.1 1.9-.6.8.5 1.8 2.6 2.1 2.6.5 2.7.8 1.7 2.6-.5.8-.8 1.7-.7 2 0 .5-.4 1-1 1.5-.7.4-.9.9-.6 1.2.7.7 6.2 2 7.1 1.7.8-.3 2.3 1.2 3.7 3.5.4.6 1 1.2 1.3 1.2.3 0 .2-.2-.2-.5-.5-.4.4-.4 2.6-.2l5.3.5c1 0 1.9.4 1.9.6 0 .4-2.5.4-6.3.3l-6.3-.3-2 2c-1.2 1-2.5 1.9-3 1.9s-1.3.5-1.6 1.2c-.6 1.1-.6 1.2.5 1.3.6 0 1.3.2 1.5.4.2.2 1.3.4 2.5.4 1.6 0 2 0 1.6.5-.3.3-3.3.6-6.7.6-11 .1-7 1.8 7 3 1.7 0 2.8.4 2.7.6-.2.3 0 .7.2.9.4.3.5.2.3-.2-.5-1 1-.7 2 .3.8 1 1.4 1 1 .2-.3-.4-.2-.5.2-.2.4.2 1 0 1.7-.4 1-.9 1-.8 2 .3.5.7 1 1.1 1 1a39.6 39.6 0 0 0 8.8 1.4 365 365 0 0 1 33.4 4l2.2.7c1.6.5 2.8 1.4 2.8 2 0 .3-2.7 1.1-5.7 1.8-2 .4-10.8.2-32-.9l-16-.6c.5.5 9 2.3 12.3 2.6 4.6.4 5.5.8 2.6 1.2a475.6 475.6 0 0 1-32.6-2c-3.4 0-3.7 0-3 .8.9 1 5.8 1.6 19 2.4 11.5.7 11 .6 11.3 1.6.4 1.4-1.5 1.6-11.7 1.5-15-.2-16.4 0-14 2.2 1 .7 1 1 .4 2-.5 1-.4 1.1 1.3 1.7a96.4 96.4 0 0 0 25.2 3.3l4.2.3 3 3.2c1.7 1.8 3 3.6 3 4.2-.1 1.4.1 1.5 6.6 2 3 .3 6.8 1 8.6 1.4 5.5 1.4 3.9 2-5.2 2-3.3 0-6.4.2-7 .5l-4.2 1.2c-3.7 1-9.3.7-29.7-1.4-14.3-1.5-24.5-2-25.4-1.2-1.1 1 .4 1.9 4.3 2.2 4.5.5 5 .6 4.6 1.6-.1.5-.5.7-.8.5-.2-.2-.4 0-.4.5s-.4.6-.8.4c-.5-.2-.8 0-.8.3s-.5.5-1 .5c-.6 0-1.1.2-1.1.5 0 .4 0 .5.3.3.2-.2.6 0 .9.2.3.2 1 .3 1.6 0 .7-.2.8-.3.3-.4-.5 0-.1-.3.7-.5 2.2-.5 2.7.1 1 1.4l-1.5 1 1.2.8c.7.4 1.6 1.2 2 1.8.6.8 1.6 1.2 3.6 1.5 1.5.2 2.7.7 2.7 1 0 .6-8 1.4-12.2 1.1-4.9-.3-5.3-.3-4.9.4.4.7-.7 1.4-2.2 1.4-.6 0-2 .4-3.1.9a10 10 0 0 1-3.7.8c-4.1-.2-4.4 1-.6 2.3 1.5.5 2.8 1.2 2.8 1.5 0 .3.2.4.5.3.3-.2.5 0 .5.3 0 .4.1.4.6 0 .6-.3 1-.2 1.4.6.4.5 2.1 1.5 3.8 2.2 2.3.9 3.3 1.6 3.7 2.5.6 1.6.5 1.6-3.4 1.9-11.6.8-12.2 1-7.8 3 2.2.8 4.7 1.3 9.6 1.8a99 99 0 0 1 14.7 1.7c.3.2.5.8.4 1.4 0 .6.4 1.2 1 1.4 1.4.4 1.2 1.4-.3 2-1.3.6-22.5-.6-26.6-1.4-1-.1-2.6-.2-3.6 0l-1.9.4 2.5.5 6 .8c5.8.6 9.4 1.3 10.1 2 .9 1 .8 1.2-1.4 1.8-1.2.3-2 .8-1.9 1.2.1.3-.5.6-1.7.6-1.1 0-2.5.2-3 .3-1.1.3-1.6.4-2.9.5-.4 0-.5.2-.3.4s2.6.6 5.4.7c5.1.3 6.7.9 6.6 2.4 0 1.4-2.9 1.8-11 1.7-1.5 0-1.2.7.7 1.9 1.5.8 1.7 1.2 1.2 2-.8 1.3 1 1.9 8 2.5 3.2.3 6 .7 6.3.9.2.2-.2.7-.7 1-.9.6-2.4.6-8.2 0-3.9-.3-7-.5-7.1-.3l.7 2.1c1 2.1 1.5 2.3 8.4 3 6.8.8 8.2 1.2 8.1 2.3 0 .6.6 1 1.9 1.4 2 .6 2.9 2 1.2 1.8-.6 0-1.3.3-1.7.7-.5.6-2 1-6 1.4-.6 0-3.9 0-7.3-.2-5.9-.3-6.3-.3-6.6.7-.3.9-.7 1-3 1-2.8-.2-6.8.3-8.7 1.2a7 7 0 0 1-3.6 0 69.2 69.2 0 0 0-15.7-.8c-2 .4-2.4.7-4.7 2.6-.7.6-1.7 1.1-2 1-.5-.1-.6.2-.2 1.3.3 1 .3 1.5-.2 1.8-.4.2-.8.2-1 .1-.2-.1-.6.3-1 1-1 1.6-.1 3.2 2 3.8 1.4.3 1.7.6 1.5 1.3-.2.6 0 1 .3 1s.5-.1.5-.3c-.2-1.8.1-2 4.3-1.6 2.3.1 4.5.5 4.8.8.8.6 3.3 1.2 3.4.7 0-.4 6.1.1 6.6.6.5.6-.4.7-4.1.6-2.1 0-5.2.2-6.9.5-2 .5-3.7.5-5 .2-1-.2-3-.5-4.4-.5-1.4 0-4.8-.6-7.5-1.2-4.2-.9-6-1-9-1-.4 0-.8.3-.8.7 0 .6-1 .7-4.8.4-3.3-.2-5.5 0-7.3.4-1.5.5-4.2.7-7.2.6l-4.8-.2 2.6 1c1.4.6 3.6 1.3 5 1.5 2.3.4 5.8 2.1 4.4 2.1h-5.8c-3-.1-5.6.1-6.6.6-1.2.5-2.2.5-4.3 0-1.5-.2-7.2-.8-12.6-1.2l-14.7-1.3c-5.6-.6-7.4-.4-7 .9.2.7-.6.7-7.6 0a128.2 128.2 0 0 0-20.7-1.9 249.6 249.6 0 0 1-29.4-2.6l-10-1a1866 1866 0 0 0-98.3-5.2l-50.5-.3c-4.1 0-7.7.1-8 .3-.3.1-2.7.2-5.4.1h-7.5c-1.5.2-6.4.4-11.1.6-6.6.2-8.7.5-9.5 1.1-1 .8-1 .8-2 0-1-1-1.5-1-13.8-.5a882.8 882.8 0 0 0-42 2.1 428.6 428.6 0 0 0-46.5 4c-2.5.5-4 2-2.7 3 .7.4 1 .4 7.6-.5 3.4-.5 8-.5 16.8-.2 10.1.4 12.4.4 13.7-.3 1.8-.8 3.8-.9 5 0 .8.5.5.7-2.7 1-3.4.6-3.9.6-8.6 1-4.6.3-6.2 1-5.7 2.5.1.5-1 .7-4.4.9a90 90 0 0 0-19.7 2.4 291.8 291.8 0 0 0-26 5.2c-7.3 1.7-8.3 2-8 2.8.3 1-.5 1.3-3 1.5-1.3 0-2.6.3-3.1.5-.5.3-1.7.4-2.8.4-5-.3-8.6 1.7-8.7 5 0 .7-.7 2-1.3 2.8-1.2 1.4-1.5 1.5-3.4 1.1-2.2-.4-3.6.2-1.8.8 1.4.5 1.3 1.3-.2 1.6-1.8.4-4.2 2.6-4 3.7.8 2.7-.1 6.3-1.5 6.2-.5 0-1.7-2.8-1.8-4.2 0-.3-.5-.6-1-.6-1 0-1 0 .2 2.6.9 1.9 1.6 2.7 2.4 2.7 1.4 0 2.4 1.3 1.6 2-1 1-.1 3.3 1.6 4l1.6.8-2.9 1.2a15 15 0 0 1-3.5 1.2c-.4 0-1.4.6-2.3 1.2-1.3 1-2 1.2-3.5.9-1.4-.3-2.3-.2-3 .3-1 .6-1 .8-.3 1.7.4.5.9 1.5 1 2 .3 1 0 1.3-1 1.5h-1.8c-.3-.2-1 .4-1.4 1.2-1 1.6-1 1.6-1.6.7-.4-.6-.7-1.4-.7-1.9-.1-2.7-.2-3.3-.8-3.5-.3-.2-.5-1-.5-1.8s-.2-1.9-.5-2.3c-.4-.4-.8-2.2-.9-4-.2-3.3-1.8-7.8-3-8.2-1-.4-.7 1.7.5 2.4 1 .5 1 .6-1 1-1.3.3-2.3.7-2.3 1 0 .3-.7 1-1.4 1.8-1 1-1.4 1.9-1.4 3.2 0 1-.2 2.5-.4 3.4-.5 1.8 0 2.8 1.4 3.1.6.1 1 .7 1 1.5l.4 3.3c.3 1.1.3 2.5.2 3-.2.4 0 1 .2 1.1 1.5 1-3.1 5.3-5.5 5.2-1.6 0-2.8-1.4-2-2.3.3-.3.5-1 .5-1.4 0-1.1-1.7-5.2-2.2-5.3-.2 0-.8.6-1.3 1.3-.6.7-1.4 1.2-2.2 1.2-.7 0-1.2.2-1.2.7 0 .4-.7 1-1.4 1.5-.8.5-1.3 1.3-1.4 2 0 2-1.5 2-3.1.1-1.6-2-1.8-2.8-.5-3.7.6-.5 1.1-.5 2.6.1 1.3.6 1.9.6 2.5.2.7-.5.6-.8-.2-2.1-.9-1.4-1-1.5-3.4-1-1.4.1-2.9.6-3.3 1-.4.3-1.3.6-1.9.7-1.1.1-3.7-1.8-3.7-2.8 0-1-1.1-.7-2.5.5-1.3 1-1.3 1-2 0-1.2-1.8-.2-6.6 1.7-8.4 1.3-1.1 1.4-1.9.8-3.1-.7-1.2-3.1 1-3.6 3.4a7 7 0 0 1-1.2 2.6 13.1 13.1 0 0 0-2.6 5.7c0 .5-.4 1.5-1 2-1.3 1.3-2.4 4.7-2.8 8.3-.4 4.7-1.3 8.2-2.4 9.5-1 1.2-1 1.6-.8 8.7.2 7 .2 7.7-1 11.3a80.2 80.2 0 0 0-3.4 20.8c-.2 3.1-.6 7.1-1 8.8a88 88 0 0 0-.7 8.3c0 2.8-.6 6.8-1.2 8.8-.7 3-1 5.1-.9 9.3v10.7c0 3.3.2 6 .7 7.5.5 1.3 1 4 1.1 6.1.4 3.6.3 3.8-1.1 6-1.9 2.6-3.9 3.4-6.6 2.8-2.5-.5-3.3-1.5-4-4.9-.8-2.9-.4-5.6 1.1-8.2 1.3-2.1 2.2-8.2 3.1-19.2.4-5 1.3-13.2 2-18.3a96.7 96.7 0 0 0 1.5-20.8c0-3.6.1-6.4.6-8.5.4-1.7 1-5.8 1.2-9 .2-3.3.7-7 1-8.3.3-2 .2-2.5-.6-3.5-1.6-1.8-3-1.6-5.6.9-2.5 2.4-2.7 2.5-4 1.4-1.4-1.1-.8-3.4 2-8.5 1.3-2.2 2.4-4.6 2.4-5.2 0-.6.6-2 1.2-2.9 2.3-3.9 2.8-5.1 3-8.1 0-2.5 0-3.1-.7-3.2-.7 0-.8-.3-.5-1.3.3-.8.2-1.3-.2-1.3a31.5 31.5 0 0 1-3.4-.6c-.9 0-1.1-.4-1-1.4 0-1-.3-1.3-1-1.3-.6 0-1.2-.4-1.4-.7-.2-.4-.4-.4-.9 0-1.2 1-2 .5-1.7-1.2.2-1.4.4-1.7 1.4-1.6.9 0 1.2-.2 1.2-1 0-2-.8-6.3-1.4-7.4-.7-1-.8-1-2.3.1l-1.9 1c-.2 0 .6-3.5 1.2-4.6.2-.5.9-1 1.4-1.2.6-.1 1-.7 1-1.4s.3-2 .5-2.8c.4-1.4.3-1.6-.7-1.7-.6 0-1.3.3-1.4.7-.2.5-1 .8-1.6.7-1.5 0-1.7.5-2.3 8-.3 3.3-.8 5.7-1.1 5.8-.3 0-.5-.6-.5-1.6v-1.8l-2.7-.2c-3.1-.2-3.3-.1-4.9 3.5-.8 1.8-1.3 4.7-1.8 10.3-.6 6.5-1 8.1-2 10.2-1 2-1.3 3.3-1.4 6.5 0 4.4-1 6.7-3.1 8.5a16.7 16.7 0 0 0-3.8 7.6 92.7 92.7 0 0 0-4.8 13.6 54.4 54.4 0 0 1-4.2 10.8c0 .5-.8 2.1-1.7 3.7-2.1 3.6-5.8 13-6 15.3 0 .9-.7 3.4-1.5 5.6-.8 2.2-1.5 4.7-1.5 5.5 0 .9-.5 2.3-1 3.3-.4 1-1.3 4-1.9 7-.7 3.3-1.7 6.3-2.7 8a19 19 0 0 0-2 5.9c-.3 2-1.2 4.4-2.8 7.3a25.3 25.3 0 0 0-3.3 9.4c-.5 2.9-1 6-1 6.8-.1 1.7-2.2 5.7-3.9 7.4-2.3 2.3-5 2.6-7.4 1zM141 554.7c-.6-.6-1.3-1-1.5-.9-.4.5.9 2 1.8 2 .6 0 .5-.2-.3-1.1zm234.2 1.8c0-.7-.6-1.8-1.4-2.6a8 8 0 0 1-1.6-2.1c-.2-.5-.5-.6-1.2-.2-1.7.9-1.6 2.5.2 4.3 2 2 3.9 2.4 4 .6zm2.4-10.2c0-.3-.7-.7-1.3-.9-.8-.1-1 0-.8.7.3 1 2.4 1.2 2.1.2zm26.5-9.4c0-.3-.4-.6-1-.6-.7 0-.7 0 0 .5.9.7 1 .7 1 0zm-154.6-28.7c.1-.3 0-.5-.5-.5-.4 0-.8.2-.8.5 0 .2.2.5.4.5.3 0 .7-.2.9-.5zm179 5.5c2.4-.5 4.7-1.2 5-1.6.4-.4 1-.6 1.4-.4.5.2 3-.1 5.5-.7l5.5-1.1c.5 0 2.5-.4 4.6-1l6.7-1.6c4.4-.8 5.3-1.1 5-2-.5-1.5-5-1-14 1.5l-10.5 2.7a116.9 116.9 0 0 0-15.4 4.9c-.1.4 0 .6.7.4l5.5-1zm429.8-13.4c-.1-.3-2-.6-4-.7-3-.1-3.4 0-2 .3 2.6.7 6.3 1 6 .4zm50-5.6c.4-.6.7-1.3.7-1.5 0-.7-3.7-1.7-6-1.5-3.8.3-7.9 1-8 1.4 0 1.2 1.3 1.8 4.4 2.3 5.3.7 7.8.5 8.8-.7zm-708.1-40a12 12 0 0 0 2.4-1.6c.4-.8 1.2-.3 2.4 1.3 1 1.3 1.7 1.6 3.5 1.7 2 0 2.9-.4 3-2 0-.6-4-1.4-8.4-1.6-3.5-.2-4.2-.1-5 .8-.5.5-1.3 1.1-1.9 1.3-.5.2-.8.6-.6.9.5.9 2.2.6 4.6-.7zm20.2-.4c1.7-1.4 2-1.8 1.5-2.5-1.2-1.6-6.6 1.9-5.6 3.7.5.9 2 .5 4.1-1.2zm-7.5-4.2c1-.3 1-.4-.3-1.1-1.1-.6-1.6-.6-2-.1-.6.4-.6.7 0 1 .9.7 1 .7 2.3.2zm3.4-1.1c.1-1.3-.4-2.4-1.1-2.4-.4 0-.7.3-.6.8l.1 1.6c0 .9 1.6.9 1.6 0zM943 474.4c-.5-.1-1.3-.2-1.8 0-.5 0 0 .2 1 .2s1.3 0 .8-.2zm-752.2-47c.4 0 .8-.5.9-1 0-.5-.5-.7-1.7-.6-3 0-4.3 1.8-1.6 1.9.9 0 2 0 2.4-.2zm31.6-4.2c0-1 .2-1.7.9-2 1.3-.7.4-1.7-1.2-1.4-1 .2-2.8 2.4-2.9 3.6 0 .5 2 1.7 2.8 1.5.3 0 .5-.8.4-1.7zm-37-1.8c.2-.3 0-.8-.4-1.1-1.4-1.2-.7-2.5 2.6-5.5l3.3-3-.8-1.9c-.4-1-1-1.8-1.3-1.9-1.3 0-3.6 2.2-4.3 4-.5 1.3-1.2 2.3-2 2.6-1.8.7-3 5-1.9 6.4.7.7 4.3 1 4.8.4zm774.3 35.3c.2-.5 0-.6-.7-.4-.8.1-1 .3-.4.7.8.5.7.6 1.1-.3zm-782.8-47.1c0-.6-1.4-1.2-1.7-.7-.2.2-.1.6 0 .7.5.6 1.7.5 1.7 0zm17-2.6c-.2-1.7-.4-1.9-1.4-1.7-.6.2-1.4.3-1.8.2-1 0-.8 1.8.6 3.4 1.1 1.3 1.3 1.4 2 .7.7-.5.8-1.2.6-2.6zm-12.2-10.7c0-.3-.3-.5-.7-.5-.5 0-.8.2-.8.4 0 .3.3.6.7.6.4 0 .8-.2.8-.5zm5 .1c-.2-.7-1-.7-1.3 0 0 .4.2.6.7.6.5 0 .8-.2.7-.6zm11.2-4.7c.2-1-.6-1.9-2-2-1 0-1.3 1.5-.5 2.5.8.8 2.2.5 2.5-.5zm5.4-6c.1-.4.7-.7 1.2-.7 1 0 1.8-1.1 1.3-1.7-.2-.2-1.2-.4-2.3-.4-1.5 0-2-.4-2.2-1.2v-1.4c.2-.2.1-.7-.1-1.1-.4-.6-.6-.6-1.3 0-.5.5-1.3.9-1.7.8-.4 0-.7.2-.7.5s.2.5.5.6c.7 0 .5 2.2-.3 3-.5.4-.5.7 0 1.2.4.5.7.5 1.2 0 1-.8 2.5-.6 2.8.3.1.5.5.8.7.8.3 0 .7-.3.9-.7zm8.3-8.6c.7-.4.6-.6-.1-1.6-1.6-1.9-3.5-1.2-2.3.9.6 1.2 1.2 1.4 2.4.7zm26.3-4.1c.5-.5 1.6-.8 2.3-.8 2.6.1 3.8-.4 4.9-2.3.8-1.5 1-2.3.7-3.8-.4-2.3-.3-2.2-2.2-2.6-1.3-.3-1.8-.2-2.6.9-.7.8-.8 1.1-.3.9.5-.3.5-.2-.1.4-1 1-2.6.5-2.5-.9 0-.5-.2-1-.5-1-1 0-4.3 2.5-4 3 .2.3 0 1.2-.4 2-.7 1.5-.7 1.7.6 2.9.7.7 1 1.4.8 1.5-.3.2-.4.6-.3 1 .3.9 2 .3 3.6-1.2zm4.6-14.5c.8.3 1.8.1 2.4-.3 1.6-1 4.4-.7 5.7.7 1.1 1.1 1.3 1.1 1.8.3.3-.5.8-.8 1.3-.8.7 0 1.8-1.5 1.9-2.7 0-1-7.2-4.8-9.6-5-1.6 0-2 .2-2.4 1.1-.3.6-1.6 2.2-3 3.4-2 1.7-2.6 2.6-2.4 3.4.2 1 .3 1 1.5.3.8-.5 1.8-.6 2.8-.4zm-21.6-15.8c1-.8 1-3.4 0-4.3-1-1.3-3.4-.9-4 .7-1 2.4 2.2 5.3 4 3.6zm37.3-1.2c.5 0 .7-.4.6-1.4 0-1-.5-1.6-1.8-2.1-1-.4-2.3-.8-3-.8-.5 0-1.7-.4-2.5-1-2.1-1-3.2-.6-3.3 1.5-.1 1.8 1.6 3.2 3.4 2.8.7 0 1.8.2 2.5.6.8.5 1.8.7 2.4.6l1.7-.2zm742.7 30.5c0-.3-.3-.4-.6-.3l-.5.5c0 .2.2.3.5.3s.5-.2.6-.5zm-739-45.7c-.4-.6-.7-1.3-.7-1.7 0-1.5-4-5.5-4.8-4.7-.7.6.4 3.1 2.1 5 2.6 2.6 5.5 3.8 3.5 1.4zm57.8-18.7c-.3-2-.8-2.7-5.4-8.3-2.2-2.7-3.4-2.8-2.6 0 .2.9.9 2.1 1.4 2.7.5.6.9 1.4.9 1.6 0 1 4.2 5.6 5.1 5.7.7 0 .8-.3.6-1.7zm-10.6-.2c0-.5-.6-2.4-1.3-4.1-.8-1.7-1.4-3.7-1.4-4.3 0-.6-.5-2-1.1-3-.7-1-1.5-2.7-2-3.5-1-2.3-3-3.6-4.2-3-.6.4-1.4.6-1.8.6-.4 0-.8 0-.8.2 0 .8 1.3 3.5 2.7 5.2.8 1 1.7 2.8 1.8 3.8.2 1.4 1.1 2.7 3.7 5.4 3.5 3.7 4.4 4.2 4.4 2.7zm21.7 1.4c0-.3-.2-.5-.5-.5s-.5.2-.5.4c0 .3.2.6.4.6.3 0 .6-.2.6-.5zM441 295.3c.1-2.5-.6-3.7-1.9-3l-3.6.8c-2.3.5-2.7.7-2.6 1.6 0 1 .6 1.3 2.6 1.8 1.4.4 3.2.8 4 .8 1.3.2 1.4 0 1.5-2zm203.1-4c1.1 0 .3-.9-1-1l-6-.6c-4.8-.6-7.5-.3-8 .8-.1.5 1.4.6 7.2.7h7.8zm135.5-1.3c0-.2-.7-.3-1.5-.2-1.5.2-2 .5-1.3 1.2.3.4 2.8-.5 2.8-1zm-589 329.8c.4-.7 1.4-2.2 2.3-3.3a26 26 0 0 0 2.7-5.2c1.3-3.4 3.3-6.6 5.4-8.7a6 6 0 0 0 1.4-2.2c.2-.5.5-1 .9-1.1.7-.2.5.2-1.8 6-.7 1.8-2 4-2.8 5-.9 1-1.6 2-1.6 2.2 0 .2-.4.8-1 1.3-.5.5-1.3 2-1.7 3.1-.9 2.7-1.9 4-3.3 4.1-1 .2-1 0-.4-1.2zm14-23c0-.4.3-.7.6-.7s.4-.2.2-.6c-.2-.3-.1-.4.2-.2.4.3.4.7 0 1.4-.7 1.2-1 1.2-1 .2zm16-30.2c0-.9 1.2-2.3 1.9-2.2.8 0 .9.5.3 1.7-.3.8-2.3 1.1-2.3.5zM434 539c-1.7-1.2-1.3-1.8 1-1.7 2.2.1 3.3 1.4 1.9 2.2-1 .6-1.7.5-3-.5zm161.5-35.6c-.5-.6-.4-1 .8-2 1.2-1.2 1.7-1.3 5.5-1 3.7 0 4.1.2 4 1.1 0 1.5-1.4 2.5-3.3 2.5h-4c-1.7.2-2.6 0-3-.6zm-430-107.8c-.6-.2-1.3-.7-1.4-1.1-.1-.6.4-.6 2.8-.3 2.8.5 5.2 1.7 3 1.6h-2c-.6.2-1.7 0-2.3-.2zM162 394a2 2 0 0 1 1.3 0c.4.2 0 .3-.6.3-.7 0-1-.2-.7-.3zm78.4-58.6c-.3-1 .5-2.3 1-1.8.2.2.1.9-.2 1.5-.4.9-.6 1-.8.3zm753 31.8c.2-.2.7-.2 1 0 .5.2.3.3-.3.3-.5 0-.8-.1-.6-.3zm-789.7-80.9c-.3-.8.8-2.2 1.8-2.1.8 0 2.5 2 2 2.5-.7.6-3.6.3-3.8-.4zM955.1 316c-1.2-.2-3.8-.6-6-.7-4.2-.3-4.7-.5-4.2-1.4.2-.5 1.4-.6 5-.3 2.6.3 5 .6 5.2.9a6 6 0 0 0 2.4.4c1.2 0 1.8.3 1.6.7-.3.8-1.7 1-4 .4zm5.9.4c-1.4-.5-1.4-.6.7-.8 1-.1 1.4 0 1.4.6 0 .9-.2.9-2.1.2zm-20.2-2.9c-.6-.6-.3-1.1.7-1.4 1.1-.3 3.1.6 3 1.4 0 .6-3.2.6-3.7 0zM358.6 235c-.4-.5-.7-2.2-.8-3.8a29.3 29.3 0 0 1-1-10c0-3-.2-6.7-.5-8.2-.4-2.3-.4-3 .2-3.6.5-.7.8-.7 1.2-.3a57 57 0 0 1 2.5 13c.1 1.7.6 4.2 1 5.5 1.2 3.2 1 6.7-.3 7.5-1.3.9-1.6.9-2.3-.1z"/></svg>