<svg xmlns="http://www.w3.org/2000/svg" viewBox="0 0 1100 767.5"><path d="M310.9 516c0-.7-.3-1.2-.6-1-.3.2-.9-.6-1.3-1.7-.5-1-1.2-2-1.8-2-.7 0-.7 0-.2-.7.5-.6.4-.8-.1-1-.6-.2-.5-.5.1-1.2.6-.8.7-1.1.1-1.3-.3-.1-.6-.5-.6-.8 0-.3.2-.3.5-.2.3.2.4 0 .2-.5-.2-.4 0-.8.3-.8.5 0 .5-.3 0-1.1-.4-1-.4-1.1.3-1.1s.8-.2.2-.8c-.7-.7-2 0-2 1 .1.2-.1.6-.5.7-.4.1-.5-.2-.3-1 .2-.7.1-1-.2-1-.3.2-1 .2-1.6 0-.9-.4-.6-.5 1.3-.8 1.4-.3 2.3-.7 2.3-1.2s.5-.8 1-.8c.7 0 1.5-.5 2-1 .7-1.1 3.5-2.6 4.4-2.4.2 0 1.8-.2 3.6-.7a60 60 0 0 1 6.5-1.1c2-.3 3.6-.7 3.8-1 .2-.2.8-.4 1.5-.4s2.7-.8 4.5-1.7c1.9-.9 3.8-1.6 4.3-1.6s1-.3 1.3-.6c.1-.3 0-.5-.3-.5-.8 0-.5-2.5.3-2.6l3-.7c1.3-.4 3-.5 3.7-.4a7 7 0 0 0 3.1-.2l4.8-1.1c4.7-1 7.2-1.7 7.2-2.2 0-.5-28.4-.1-35.4.5-3.7.3-5 .2-6.6-.4a48.1 48.1 0 0 0-4-1.7c-1-.4-2.1-.5-2.6-.3-.5.1-7.8.4-16.3.5a200 200 0 0 0-34.7 3.1c-.6.4-2.3.5-3.8.3-1.5 0-2.8 0-3 .3-.1.2-.5.3-.8.1-.3-.1-.5 0-.5.3s-.2.5-.4.5c-1-.3-5.7.7-5.7 1.2s-4.1 1.4-5.7 1.2c-.6 0-1.5.4-2.1 1-.6.6-1.5 1.1-2 1.2-.5 0-2.4 0-4.2.2-1.9 0-4.3.4-5.6.7a40 40 0 0 1-4.3 1c-1.1.1-2 .5-1.7.8.5.8-.8 1-10.3 1.8-.6 0-1 .3-.9.6 0 .3-.4.6-1 .8l-2.5 1.3c-1 .7-3 1-7.4 1.3l-7.4.3c-.7 0-2 .3-3 .8-.9.5-1.8.7-2 .4-.5-.7-2.4-1.4-2-.7.5.7 0 .7-1.5-.1-3-1.6-17-.4-18.5 1.6-.5.6-.5 1-.1 1.2.3 0 .5.4.5.6 0 .3-.3.4-.7.2-.5-.1-1 0-1.2.3-.5.9 2.8.8 4.6-.2.8-.4 2.6-.9 4-1.1l3.4-.6c.5-.1 1 .1 1 .5 0 .5.7.7 2.3.6 1.8-.2 2.1 0 1.4.4-.6.3-.9.7-.7 1 .3.5-2.8 1-8.8 1.5-3.3.2-4.4.1-4.8-.5-.3-.5-.5-.5-.5 0 0 1-3.3.8-4.5-.3-.5-.5-1-.6-1-.3s-1.8.3-4.5.1l-8.7-.7c-2.3-.2-5-.6-6-1-1-.3-2.4-.5-3.2-.3-.7.1-1.5 0-1.7-.3-.2-.4 0-.4.4-.1.4.3.6.2.3-.2-.4-.6-3-1.2-6.1-1.4-1.9 0-2.2-.3-2.3-1.3 0-1 .3-1.2 3.6-1.6l5-.3 1.4.1-1.5-.8c-2.5-1.3-5-2-9.8-2.3-2.6-.2-6.3-.7-8.3-1.2a65 65 0 0 0-21-.1c-.2.3-.7.5-1 .3-1-.6-11.1-.8-10.8-.2.3.5.2.5-7 .7-5 .2-7.2.3-14.9 1.3-3.4.4-5.5.2-7.5-1-.8-.4-.6-.6 1.4-2 1.6-1 3.6-1.5 6.6-2 5-.6 10-1.4 13.4-2.2 2.1-.4 2.5-.7 2.3-1.6-.1-.6-.6-.9-1-.7-.5.2-.8 0-.8-.3s.4-.6 1-.6c.8 0 .8-.1.1-.6-.5-.3-.6-.5-.2-.5.4 0 .6-.4.4-.9-.2-.5.3-1 1.8-1.7l2.1-1-5.4-.3a141.1 141.1 0 0 0-12-.3l1.2-1.3 1-1c0 .3.6 0 1.3-.4.7-.4 3-1 5.3-1.4 2.3-.4 5.1-1 6.3-1.4 1.2-.5 3.1-.8 4.2-.8 3 0 10.8-2 8.6-2.3l-1.6-.3-1.8-.4c-1.3-.2-1.3-.8-.2-1.1a9 9 0 0 0 2.6-1.8c.8-.7 2-1.3 2.7-1.3.7 0 1.5-.3 1.9-.7.5-.7 0-.9-2.6-1.2l-4.8-.6a59 59 0 0 0-11.4 0c-.8.6-7.1.8-7.1.3 0-.2.3-.7.8-1.1.5-.4.8-1 .8-1.3 0-.3-.1-.4-.3-.2-.2.2-.7.1-1.1-.2-.4-.4-.8-.4-.8-.1 0 .3-.4.5-.8.5-1.3 0-1-.6.9-1.4 2-.9 1.7-1.3-1.6-2-3-.6-3.6-1.7-1.4-2.5 2.2-1 12.7-2.1 18.7-2.1 2.8 0 5.8-.2 6.6-.4l1.5-.4-1.6-1.3c-.9-.7-2-1.3-2.5-1.3-1.3 0-1.7-.9-1-2.2.7-1.4 5.5-3.9 7.5-3.9.8 0 1.2-.2 1-.5-.1-.3-.7-.6-1.3-.6-1 0-2-1.4-1.8-2.3.2-1-8.5.1-9.3 1.1-.5.8-14.6 3-16 2.4l-1.3-.5 1.3-.6a74 74 0 0 1 10.2-2.2c9-1.5 11.1-2.6 5.2-2.6-1.8 0-3.4-.3-4-.7-.7-.7-1.8-.7-6.3-.1-8.2 1-13 1.7-14.1 2-.7.2-1 0-.8-.6.2-1 1.9-2.1 4.6-3 2.3-1 .8-1.6-2.1-1.1l-4.8.7-2.5.4 2-2c1.2-1 2.1-2 2.1-2.1 0-.1-1.5-.4-3.4-.6-4.4-.5-6.8-1.8-6.8-3.6 0-1 3.6-2.2 7-2.5a74 74 0 0 0 6.8-1c2.4-.5 6.2-1 8.3-1.1l7.2-.9c11.3-2 13.8-2.4 14.3-2.7.3-.2-.5-.6-2-1-1.3-.3-2.4-.9-2.4-1.3 0-.9 5.6-3 10.6-3.8 2.5-.5 4.3-1.1 4.9-1.8.5-.6 2.4-1.3 4.2-1.7 4.2-.8 4-1.6-.5-3.2-1-.4-1.6-1-1.5-1.3.3-.8 2.9-2 4.3-2 .5 0 .8-.3.6-.6-.1-.3-2.1-.5-4.4-.5-3.7 0-5.2-.6-3.4-1.3 1.6-.7-6.5-.3-10.4.4-5 1-7.7.6-7.7-1 0-.8 1.4-1.8 5.4-3.8 3.8-2 5.2-3 4.7-3.2-1-.7 0-1.3 3.7-2.5 5.2-1.7 9.4-4.6 8.8-6.2-.3-1 1.7-1.6 10.1-2.8 4.2-.6 8.4-1.5 9.3-2 1-.4 3-1 4.4-1.1 4.1-.5 12-2.5 13.2-3.4a6 6 0 0 1 2.8-.8 9 9 0 0 0 2.7-.5c1-.4.7-.5-1-.5-4.8-.2-7.3-.7-7.9-1.5-.4-.6-1-.7-2-.5-1 .3-1 .3-.2-.3.5-.3 1.4-.5 2-.4.4 0 1.2 0 1.6-.3.4-.3 1.3-.2 2.1.2 1 .6 1.6.6 2.4.1.7-.4 1.2-.4 1.4 0 .2.2 1.7.5 3.5.5 1.7 0 3.7.3 4.5.8 1.6 1 2.2 1 2.2.3 0-.3-.4-.6-.9-.6-.4 0-.7-.2-.5-.5.1-.3-.2-.6-.9-.8-.6-.1-1-.6-.9-1 .3-.7 2.7-1.2 10.4-1.8 6.9-.6 8.8-1 8.8-1.4 0-.3-.4-.6-.8-.6-.5 0-.8-.5-.8-1 0-.9.3-1.2 1.3-1.2 1.6 0 1.9-.8.4-1.2-.5-.2-3.3-.1-6.2 0-8.3.5-11.7.3-13.4-.6-1-.5-1.8-.8-2-.7-.2.2-.3-.4-.1-1.3.2-1.9-.5-2.2-6.2-2.3-3.4-.1-3.7-.2-2.5-.8 2-1 9-2.4 13.3-2.7 2.2-.1 4.2-.6 5-1 1.5-1.2 2.5-1.2 3.5-.1.5.4 1.8.8 3.2.8 4 0 19.3-1.6 21.4-2.2 2-.6 2-.7 1.6-2.5-.3-1.1-.2-2 .1-2.4.4-.4.4-.8 0-1.3-1.3-1.6.3-2 8.4-1.7 6.3.2 8.2 0 9.5-.6 1.3-.6 7.4-1.6 11.5-1.8.6 0 2.4-.2 3.9-.5l2.7-.5-2.4-.4c-1.4-.2-5.5-.3-9.2-.1l-11.5.2c-2.8 0-8.1.3-12 .8-7.4 1-15.2 1.7-18.5 1.7-1.2 0-2.3.2-2.5.4-.2.3-1 .6-2 .6s-1.8.3-1.8.5c0 .3-.5.3-1.2.1-1-.2-1-.2-.4.3.7.5.7.5-.2.5-.5 0-1 .3-1 .7 0 .3-.4.2-1.3-.3-1.5-1-2.2-1.2-1.7-.4.2.3-.2.6-.8.8-.6.1-1 0-1-.4s-1-.6-2.2-.6c-1.3 0-2 .2-1.9.6 0 .5-.5.6-2 .4-2.2-.2-4.5-1.5-4.5-2.6 0-.4-.2-.3-.5.2-.4.6-.6.5-.6-.7 0-2 1-3.7 2-3.7.5 0 .7-.3.5-.6-.2-.3.1-.5.7-.6 1.8 0 3-.4 4.2-1.2 1-.7 3.7-.4 3.7.4 0 .2-.4.2-.8 0-.4-.1-1 .2-1.5.7-.7.8-.7.9 0 .5.6-.4.7-.3.4.5-.2.6-.1 1.2.3 1.5 1 .6 2 .5 1-.2-.6-.4-.3-.5 1.3-.3 1.2.2 2.6 0 3.1-.3.8-.5 1.2-.5 1.8 0 .7.6 1 .5 1.3-.3.2-.5.4-1.1.3-1.4 0-.2.3-.4.7-.4.4 0 .9-.3 1-.6.1-.4 1-.7 1.8-.8 1-.1 2-.6 2.3-1 .3-.5.8-.7 1-.5.3.3.3 0 .1-.5-.4-1.2.7-1.3 1.1-.1.3.7.5.7 1.4-.1 1-1 1-1 1 0s.1 1 .6.3c.8-1.2.7-1.5-.8-1.9-1-.2-1.3-.7-1.3-1.5.1-1.3 2-2.2 4.3-2 2 0 3.9-.7 3.9-1.6 0-.6.5-.8 2-.7 2.2.2 6-.4 7.3-1.2.7-.4.7-.4-.2-.5l-4-.3c-4.6-.4-10.8-.4-13.1 0-1.5.4-2 .3-1.8-.1.3-.4.1-.6-.4-.4-.4.2-1.1-.3-1.7-1.2-.7-1-.8-1.6-.4-1.7.5-.2.4-.5-.3-1-.9-.7-.8-.8.7-.5h1c-1.5-.7-.7-1.4 1.5-1.4 1.4 0 2.2.3 2.2.7 0 .5.1.5.5 0 .3-.5.6-.6.8-.3.4.6 1 .6 2.8-.1.6-.3 1.9-.5 2.9-.5 2.3 0 3-1.5.7-1.5-.9 0-1.7-.3-1.9-.8-.2-.5 0-.8.8-.8.6 0 1.2-.3 1.5-.7.6-1 2.9-2.2 3.5-1.8.2.2.6 0 .8-.3.2-.3 1-.5 1.9-.5.8 0 2.8-.4 4.5-1 2.6-.7 2.8-.9 1.8-1.3-.7-.2-5.3-.4-10.3-.4-5 0-9.3 0-9.7-.3a77.4 77.4 0 0 1-20.3.6c-.6.2-.6.4-.2.7.3.2-.2.4-1 .4-1 0-1.8-.2-1.8-.5s-.3-.3-.8.1-1 .6-1.2.3c-.3-.2.2-.8 1-1.4l1.3-1-1.4.2c-1.2.3-1.2.2-.2-.2 1.5-.8 4.2-.7 5.7.1 1.5.9 3.4.6 3.4-.5 0-.4 1-.7 3.6-.7 2.2 0 3.5.2 3.5.6 0 .4.4.2.7-.3.5-.6 2-1 5.4-1.2 2.6-.2 6.3-.7 8.2-1.2 2-.4 4.3-.8 5.2-.8 1 0 3-.4 4.6-.8 2.5-.7 2.3-.7-4.7-.5l-8.3.3-12.7 1.3c-6.5.8-13.7 1.4-15.8 1.5-2.2.1-3.9.4-3.7.6.1.2-.8.4-2.1.4a63 63 0 0 0-7.4.8c-4.7.8-15.7 1.5-14.2 1 .4-.1.5-.5.4-.7-.2-.3.4-.6 1.2-.6.9 0 2.4-.5 3.5-1l3-1.6a510.8 510.8 0 0 1 73.8-10c3.6-.4 7.6-1 9.1-1.4 2-.6 2.8-.6 3-.2.4.6 6.2.4 13.2-.3 1-.2 4.4-.4 7.5-.6 5.4-.3 13.7-1.5 18.4-2.5 1.3-.3 2.6-.4 2.9-.3.3.2 4.1-.2 8.5-.9 6.6-1 8.3-1 9.3-.5 1 .6 2.4.5 7.3-.5a17080.1 17080.1 0 0 1 37.3-7.2c1 0 3-.3 4.3-.8 2.3-.7 7-1.5 19.6-3.4 6.5-1 7.8-1.1 14.4-2.4a584.8 584.8 0 0 1 18.2-3.1c6.5-1.1 7.7-1 9 .1.7.7 1.2 1.5 1.2 1.8 0 .3.2.6.4.6h1.7c1 0 1.2.2.7 1-.7 1.3-.1 2 .9 1.2 1.1-1 .9-.1-.4 1.4-.7.8-2.1 1.5-3.4 1.7-1.8.3-2 .5-1.4 1.2.9 1 .1 1.1 35.5-3.1 2.4-.3 6.8-.7 9.6-.8l11.6-.9 10.2-.8a72 72 0 0 1 16.6-1.4c4.7 0 8.8-.1 9.2-.3 1-.3 14-1 17-.9 1.4 0 2.9.5 3.3.9 1 1 3.7 1 16 .6a80 80 0 0 0 12.6-1.2c2.3-.6 6-.8 15.8-.7 7 0 18.7-.1 26-.4 14.8-.4 14-.4 29.3.2 9.9.5 15.6.5 24.3.1 1.5 0 2.3-.2 1.8-.4-.5-.1-1-.5-1-.8 0-.4 1.6-.5 4.6-.2l16.7.8c6.7.3 15.2.9 19 1.2a1432.3 1432.3 0 0 0 92.5 5 403.6 403.6 0 0 0 31.2 1.3 222.6 222.6 0 0 1 31.6 2.2c3.3.5 8.4 1 15.9 1.1a280.2 280.2 0 0 1 27 2.2 1440.6 1440.6 0 0 1 22.8 2.2l3.9.6c.4.2 3 .4 5.7.5 7.4.3 7.4.3 7.4 1.2 0 .4.2.8.5.8.4 0 .5-.3.2-.7-.2-.4 0-.5.6-.2.5.2 1.5.3 2.2.3.8 0 1.2.4 1.3 1.1 0 1.4-.2 1.4-1.3.3-1.2-1.1-2.5-1-2 .2.1.6 0 .7-.2.3-.4-.4-2-.5-5-.2-5.1.4-9 .3-16.2-.5a732.7 732.7 0 0 0-12-1.4c-.3-.2-.8.1-1 .6-.2.6-.7.7-2 .5-2-.5-3.2-.6-8.5-1.2l-4.2-.5c-.4-.3-7.7-.3-17.9-.1-6.4.1-10.9-.2-14.3-1-1.9-.5-15.2-.7-15.2-.2 0 .2 1.7.5 3.7.8 2 .2 4.3.4 4.9.6 4.2.8 15.6 1.7 24.8 2a188.7 188.7 0 0 0 27.3 2.2c3.6.4 12.5 1 14.8 1.1.8 0 1 .8.2 1.2-.6.4-4.7.4-8.5.2-1.1-.1-2.3-.5-2.5-.9-.4-.5-1.3-.6-3.7-.3l-3.7.5c-.2.2-.7-.1-1.2-.6-.4-.4-1-.6-1.1-.3a69 69 0 0 1-18.9-.8c-1.2 0-2.7-.4-3.4-.7-1-.6-1.2-.5-1.2 0s-.8.8-1.8 1c-4.4.3-10.5.2-15.3-.2-3.5-.2-5-.2-4.5.2 2.2 1.4-1.9 2.1-8.2 1.4-5.7-.6-6.7-.7-9.1-.3-1.3.2-3 .2-4 0-2.3-.7-14.6-1.8-20-2-2.6 0-6.4-.2-8.3-.4l-8.9-.6-15.2-1.1c-5.4-.5-13.6-1-18-1.2-7.3-.3-8.2-.3-8.5.5-.3.8-1.3 1-6.5 1-3.4 0-7.3.1-8.6.4l-2.5.4 4.1.6c2.3.4 5 .6 6 .6a444.3 444.3 0 0 0 27.6 2.3c5.7.4 10.9.8 11.5 1l12.5.7a1140.7 1140.7 0 0 1 37.4 2.2c5.3.3 10 .6 10.5.8l1.9.6c.6.3 2 .5 3.2.6 1.2 0 2.4.6 2.8 1 .5.7 2 1 7 1 3.5.1 6.6.4 6.9.5.3.2 2.4.5 4.7.7 10.8.9 21.7 1.5 26.7 1.7 3 .1 9.5.6 14.4 1.1 4.9.6 11 1 13.8 1.2a705.2 705.2 0 0 1 58.6 4.2c.1.2-.6.4-1.6.5l-3.4.1c-.8 0-1.6 0-1.8-.2 0-.3-1.1-.2-2.2.1-1.2.3-3.7.4-5.7.2s-12.5-.4-23.5-.6c-11 0-24-.3-29-.5-8.9-.4-11.4-.2-5.6.4 1.7.2 3.1.5 3.3.6.4.4-1.7 1.4-3.3 1.6-2 .3-2.6 1-1 1l8.6.6c4 .3 11.7.7 17.2.8 9.1.3 10.1.5 10.1 1.3 0 1.2 2.2 1.5 15.6 2a60.4 60.4 0 0 1 12.8 1.4c4.6 0 3.3 1.5-2.3 2.7-1.5.4-3.7.6-4.7.6-6.7-.4-5 .7 2.6 1.6l9.4.9 8.6.8c2.5.3 7.8.7 11.6.9 4.6.2 7 .6 7.4 1 .3.5 2.3 1 4.4 1.2 2.1.2 4.1.6 4.4 1 .3.4 2.4.8 4.6 1 2.2.2 4.6.8 5.3 1.2.8.5 3.2 1 6.4 1 7.1.4 12.7 1 13 1.5.3.6-4.5 1.3-5.2.8-.4-.1-.6 0-.6.2 0 .3.9.7 2 1 2 .3 2.4 1 .9 1.6-1.8.7.7 1.8 6.4 2.8 4.8.8 7.8 1.9 5.6 2-2 0 1.1 1 4.4 1.3 2 .2 3.9.6 4.2.9.4.3 2.3.8 4.2 1 5.3 1 5.3 1.6-.2 2-2 .2-3.9.7-4.4 1.2-.8.7-1.8.8-5.3.4-7.1-.6-8.5-.5-9.6 1-.5.6-.8 1.4-.7 1.6.1.2 2 .5 4 .7 2 .2 4 .6 4.2.9.3.2 1.8.6 3.2.8 4 .6 3.2 1.3-1.4 1.3-2.2 0-4.3.2-4.5.5-.2.2-2.5.4-5.1.4-3.3 0-4.8.2-5 .7-.2.4.4.7 1.9.7 1.1 0 3 .2 4 .5 1.1.2 4 .6 6.6.8 2.6.2 5 .6 5.3.9.4.3.8.4 1 .2.2-.2.9-.1 1.6.1 1 .4.4.6-2.6.8-3.5.4-7.5 1.2-9.7 2-1.3.5.8 1 7 1.9 3.2.4 5.7.9 5.7 1 0 .2 1.7.3 3.6.1 3-.1 3.6 0 3.6.6 0 1-1.7 2.7-2.8 2.6-.6 0-.6 0 0-.5.8-.5.7-.5-.1-.5-.5 0-1.1.3-1.3.8-.3.7-1.3.8-6.8.6-6.8-.3-8.5 0-7.2 1.5 2 2.6 10.7 5.3 16.6 5.3 3.6 0 5.5.7 5.5 2 0 .6-.9.8-4.3.8-2.4 0-5.3-.3-6.5-.6-1.2-.3-7-.7-12.7-.9-10.2-.2-10.5-.2-10.6 1 0 1 .6 1.7 1.8 2a192.8 192.8 0 0 0 29.2 4c7.1.5 9.6 1 8.8 2.3-.1.3-.5.3-.8.2-.3-.2-.5 0-.4.4.1.4-.3.7-.8.6-.5 0-.8.1-.7.4.2.2-.6.6-1.6.8-2.2.4-2.7 1.4-1.6 3 .6.9.7 1.4.2 2-.7.8-.2 1.3 1.2 1.3.5 0 1 .2 1 .3l.4 1.2c.3.8 0 .9-4.6.6l-7-.7c-1.6-.3-2-.2-2 .5 0 .5-.5 1-1 1.4-1.2.7-.5 3.8 1.1 4.5 1.2.4 1.2.5.1.5-1 .1-1 .1 0 .6 1 .4-.4.6-6 .8-2.4 0-4.2.8-4.2 1.7 0 .5-.6.8-1.5.8l-2.8.3c-1.2.4-1.2.4-.3 1.1a5 5 0 0 0 2.5.8c.9 0 3.2.9 5.2 2 2 1 4.4 1.9 5.4 1.9 3.4 0 8.6.7 8.3 1-.1.3.2.5.7.4.5 0 1 .4 1.2.9.2 1.2-3 3.3-4.7 3-.7-.1-1.4 0-1.5.4-.2.8-6.7 1-9.2.3-1.1-.3-6.8-.6-12.6-.7-9.8-.1-12.7.2-9 1 .8 0 2.6.5 4 .8 1.3.3 3.5.6 4.8.6 1.3 0 2.3.2 2.3.5 0 .4.4.6.9.6s1.4.3 2 .6c1.1.6 1.1.6-.2 1.3-2.3 1.1-1.6 2.2 2.3 3.4 2 .6 3.6 1.5 3.8 1.9.1.4.4 1 .7 1.1.9.6-.2 2.3-1.1 2-.5-.3-.7-.3-.6 0 .2.1-.2.9-1 1.7-1 1-2 1.4-3.8 1.4-1.3 0-2.2.3-2.1.5.1.2-2.2.2-5 0-4.3-.1-5.5 0-6.3.6-1 1-6.4 1.4-9.2.7-1.1-.3-2-.2-2.1.2-.3.3-1 .6-1.7.6-1.7 0-3 .5-3 1.2 0 .2.3.5.7.5.5 0 1 .3 1.3.8.3.5 2.4 1.2 5.7 1.9 6.4 1.2 11 3.1 10.6 4.3-.2.4-.7.6-1 .5-.5-.2-.7-.1-.6.2.2.2-.3 1.2-1.1 2.2-1 1.2-1.7 1.6-2.6 1.3-.6-.2-1 0-.8.2.2.3-.5.5-1.6.6-1 0-3.6.4-5.8 1l-3.8 1 1.2 1.2c.7.7 1.5 1.3 1.7 1.3.3 0 1.4.4 2.4 1 1.9.8 2 .9 1.1 2.1-.5.8-.6 1.4-.3 1.6.3.2.4.6.2 1-.2.3-.5.3-.8-.2-.3-.5-.6-.6-1-.2-.1.3-1 1-2 1.3l-1.6.8 1.7.2c1.9.2 3 1.7 1.5 2.2-.4.2-1 .2-1.1 0-.2-.2-1.1.2-2.2.7-1 .6-2.7 1.2-3.9 1.5-1.1.2-2.4.7-2.8 1-1 1-1.4 1-6.5-.3-4.6-1.2-6-1-7.8.7-1 1-1.5 1-4.4.5-3.8-.7-10.9-.8-10.5-.2.2.3 2.1.8 4.3 1.2 5.7 1 6.3 1.2 5.4 1.7-1.6 1 5.6 3.4 12.6 4.1 1.9.2 3.6.6 3.7.9.2.2-.2 1-.9 1.9-1 1.3-1 1.5-.2 2.4.4.6.8 1.1.8 1.3 0 .7-9.3-.3-12.4-1.3-4.4-1.5-13.3-2.5-14.2-1.7-.4.5-.4.8 0 1.3.6.7 1.5 1 8.8 3 2.3.6 3.5 1.2 3.5 1.8 0 .7-.7.7-4.1.4-2.6-.2-4.2-.1-4.5.2-.2.3 0 .6.4.6.3 0 .5.1.4.3a32 32 0 0 1-9-1.9c-.6-.5-8.7-1.7-10.4-1.6-.5 0-1 .4-1 .8 0 .3-.1 1-.3 1.4-.2.7 6.5 2.1 18.1 3.8 1.8.3 4.1.9 5.2 1.3 1.1.5 2.8.9 3.7.9 2.5 0 6.1 1 5.5 1.6-.2.3-3.6.6-7.4.7-3.9 0-7 .2-7 .2l3 1.2c2.5 1 2.6 1.1 1.4 1.8-1 .5-2 .5-4 0-3.4-.7-3.8-.7-3.8 0 0 .2.7.6 1.6.8 3 .7 2.4 1.4-1.2 1.4-2.1 0-4.3.3-5.3.9-1 .5-2.2.7-3 .4a252 252 0 0 0-27.1-.2c.6 1-6.6 1-12.8 0a214.2 214.2 0 0 0-30-3.4c-3.9 0-9.6-.4-12.8-.8a329.5 329.5 0 0 0-19.8-2.1l-4.4-.6-6.1-.5c-2.2-.3-12.3-.9-19.6-1.1a412 412 0 0 1-18.8-1.2c-1.8-.2-8.9-.4-15.7-.6-6.9 0-15-.4-18-.6-3-.3-11.4-.5-18.6-.4-11 0-13.3.1-13.7.8-.4.7-.6.7-1 0-.3-.4-1-.6-2.1-.4-1 .2-2 0-2.3-.3-.3-.3-1.4-.6-2.4-.7-1 0-2.3-.2-3-.4-3.2-1-6.7-1.3-8-.7-1.2.5-4 0-3.6-.7.2-.2-2.5-.5-5.9-.6-9.1-.2-10-.3-11.1-1.1-.9-.7-1-.7-.8.2.2.8 0 1-.6 1-.5-.2-1.4-.3-2-.3-.8 0-1.3-.2-1.3-.4s-.4-.6-1-.8c-.6-.2-.7 0-.5.5.3.6.1.8-.3.5-.4-.3-3-.5-6-.6-6-.2-5.1-.2-33.6-.1a493.8 493.8 0 0 1-29.6-.4c-1 .4-19 1-24.5 1-4.3-.1-9.3 2.4-6.5 3.3.4.2.1.6-.7 1-.8.4-1.5 1-1.7 1.2-.6 1-5.3 1.4-6.6.7-.9-.4-3-.6-6.6-.5-2.9.2-12.5.4-21.2.5a277 277 0 0 0-24.3 1c-3 .1-6 .5-6.7.8-1 .6-6.2 1.6-7 1.4-1.1-.3-3-.2-4.9.2a13.3 13.3 0 0 1-5.2 0l-6.4.6c-2.8.4-6.3.7-7.6.7-1.3 0-2.7.2-3 .5-.4.3-1.5.7-2.5.9-1.4.3-1.8.2-1.8-.6s-.4-.8-4-.5c-2.2.2-8 .5-12.8.5a90 90 0 0 0-15 1.4c-.2 0 0 .4.4.9.3.4 1.5.8 2.5.8s1.9.1 1.9.2l.3 1.1c.5 1.2-1 1.2-2.3 0-.7-.7-1-.8-1.2-.3-.1.4-.4.5-.7.4-.3-.2-.5-.2-.5 0 0 .3-.6.6-1.3.6l-8.4.7c-4 .3-11.9.7-17.7.8-5.7.2-11 .4-11.8.6-2.6.5-16.7 1.8-24.3 2.2-14 .7-24.7 2.7-26.9 5-.7.8-1.9 1.4-2.8 1.4a251.8 251.8 0 0 0-28.5 2.5 83 83 0 0 0-9.5 1.4l-.2-1.4zm0-5c0-.6-.3-.6-1.1-.2-.7.4-1 1-.8 1.4.3.7.5.7 1.1.2.4-.3.8-1 .8-1.4zm93-8.2c2.2-.8 2.1-.8-2.5-.5-10.5.6-13.8 1-13.8 1.3 0 .7 14 0 16.3-.8zm-256.4-6.6c0-.2-.4-.3-.9-.3-.4 0-.8.3-.8.6s.4.4.8.2l.9-.5zm40-2c.2-.2-.3-.5-1-.5-.8 0-1.6.3-1.8.6-.2.3.3.5 1 .5.8 0 1.6-.2 1.8-.5zm-26.2-2.7c0-.6-.7-.7-2-.2-1.3.5-1 1.2.6.9.7-.1 1.4-.5 1.4-.7zm312.3-.1c2-.6 2.2-.8 1.3-1-1.5-.3-19 .4-28.5 1.2-2.5.2 17.2.8 21.3.6 2-.1 4.6-.5 6-.8zm19.2-1.7c.6-.2-.5-.3-2.5-.3-4.7.1-6.6.6-3.6 1 1.2.2 2.8.1 3.6 0l2.5-.7zm-352.3.1c1.1 0 1 0-.2-.5-1.5-.6-2.8-.3-2.8.6 0 .3.4.5.9.3s1.4-.4 2-.4zm360.6-.6c.1-.1-.9-.3-2.2-.4-1.4 0-2.6.2-2.8.6-.3.4.3.5 2.1.3 1.5-.1 2.7-.3 2.9-.5zm431.7-6.5c.2-.4-.7-.5-2.3-.5-2.4 0-2.5.1-1 .5 2.4.6 3 .6 3.3 0zm-851-8.1c-.3-.2-.8-.2-1 0-.2.2.1.3.7.3.7 0 .8-.1.4-.3zm6.6-.7c1-.4 1.1-.5.3-.5-.6 0-1.6.2-2.2.5-1.5.6 0 .6 1.9 0zm7.4.2c.5-.2.9-.8.9-1.4 0-.8-.4-1-2.4-.7-2.5.4-4.2 1.3-2.2 1.3.7 0 1.3.2 1.5.6.4.6 1 .6 2.2.2zm896.9-9.6c0-.3-.4-.6-1-.6-.8 0-.8.1-.1.6 1 .6 1 .6 1 0zM109.5 442c-.4-.2-1-.1-1 0-.3.2 0 .4.6.3.7 0 .8-.1.4-.3zm-4.6-1.6c0-1-1.5-1-3.5-.2-2.2.8-1.7 1.4 1 1.2 1.7-.2 2.5-.5 2.5-1zm10.3.4c-.6-.9-2.5-1.1-2.5-.3 0 .5.5.8 1.4.8.8 0 1.3-.2 1.1-.5zm-4.2-.6c.6-.4.3-.6-1.2-.6-1.2 0-2 .3-2 .6 0 .7 2.1.7 3.2 0zm920.3-64.6c0-.3-.2-.6-.5-.6s-.6.3-.6.6.3.5.6.5.5-.2.5-.5zm4-10.3c-.3-.2-1-.2-1.3 0-.4.1-.1.3.7.3.7 0 1-.2.6-.3zm-8.2-6.7h-2.5c-.7.2-.1.3 1.2.3 1.4 0 2-.1 1.3-.3zm-25.6-4.4c0-.3-2-.8-4.5-1.1l-6-1c-.7-.3-1.1-.2-.9.1.2.3 2.5.9 5.2 1.3a96.4 96.4 0 0 1 6 1c.2 0 .2 0 .2-.3zM196.3 349c1-.4 1-.5-.4-.5-.8 0-1.6.2-1.8.5-.4.6.7.6 2.2 0zm801.4-3.3c0-.2-2.5-.7-5.6-1-6.8-.8-8-.9-7.4-.2.3.3 3.3.8 6.6 1l6.2.6c.1 0 .2 0 .2-.4zm-832.4-6.6c.2-.2 0-.4-.5-.4-.4 0-.8.2-.8.4 0 .3.3.5.5.5.3 0 .7-.2.8-.5zm74-1H238c-.1.2.2.4.8.3.6 0 .7-.1.3-.3zm-85.8-.7c0-.3-.4-.6-1-.6-.8 0-.8.1 0 .6 1 .7 1 .7 1 0zm2.2-.9c0-.1-.2-.2-.5-.2s-.6.2-.6.6c0 .3.3.4.6.2s.5-.4.5-.6zm31.5-3.8 5.3-.9a44.6 44.6 0 0 0 7.7-1.5c0 .2 3.8-1 5.6-1.8 2.9-1.2 3-2.2.5-2.2-1.4 0-2-.2-2-.8 0-.8 2.5-1.2 6.6-.9 1.8.2 6.9-.8 8-1.5 1-.5-1.9-1-5.5-1.1a17 17 0 0 0-6.9 1.3c-2 .8-4 1.4-4.6 1.4-1 0-1 .1-.4.5.5.3 1 .4 1.3.2.2-.1.4 0 .4.3 0 .5-1.2.8-5.4 1.6-1 .1-2 .6-2.1 1-.3.7-.5.7-1.2.1s-.8-.5-.6.2c.3.6 0 .8-.8.8-.7 0-2 .1-3 .4-1.3.3-2.1.3-2.7-.2-.4-.3-.7-.4-.7 0 0 .5-4.3 2.3-5.7 2.3-.5 0-1 .3-1 .7 0 .6.8.7 3 .6 1.5 0 3.4-.3 4.2-.5zm22.7-20c-.4-.2-1 0-1.3.3-.4.4-.2.5.7.2.8-.2 1-.4.6-.5zm666.9-2.2c0-.3-.8-.5-1.7-.6-1 0-1.6.2-1.4.5.4.6 3 .7 3 0zM211.5 307h1.4l-1.3-.6c-1.5-.5-4-.1-4 .7 0 .4.6.5 1.3.3.7-.2 1.8-.4 2.6-.4zm660.8.1c0-.2-.3-.4-.8-.4-.4 0-.8.2-.8.4 0 .3.4.5.8.5.5 0 .8-.2.8-.5zm2.4.1c-.4-.2-1-.1-1.1 0-.2.2.1.4.7.3.7 0 .8-.1.4-.3zM221 306.2c-.4-.2-.9-.1-1 0-.3.2 0 .3.7.3.6 0 .7-.1.3-.3zm-62-.7c0-.3-.2-.6-.5-.6s-.6.3-.6.6.3.5.6.5.5-.2.5-.5zm14.4-1.5c0-.6-1 0-1.3.7-.3.8-.2.8.5.2l.8-.9zm5.5 0c0-.4 0-.7-.2-.7-.1 0-.4.3-.5.8-.2.4-.1.8.2.8.3 0 .5-.4.5-.8zm722.8-18.8h-1c-.2.2 0 .4.7.3.6 0 .7-.1.3-.3zM393.4 274c.2-.2 0-.6-.2-.8-.3-.2-.6 0-.8.5-.4 1 .5 1.2 1 .3zm-262 237c-.4-.4-.4-.7-.2-.7.3 0 0-.3-.5-.6-1.5-.9-.2-1.6 2.7-1.6 1.5 0 1.8.2 1 .4-1 .4-1.8 1.8-.9 1.8 1.6 0 2.8-.8 2.6-1.6-.3-.8-.2-.8.5 0 1 1.2 5.1 1.4 5.5.3.2-.5.4-.5 1 0 1.1 1 1.8 3.1.9 2.8-.4-.2-.6-.6-.5-1 .1-.5-.1-.5-.8.2-.9.7-2 .9-6 .8-3 0-5-.4-5.4-.8zm-7.6-1.2c-.8-.5-.4-1.7.4-1.7.7 0 1.2 1.5.7 1.9-.2.1-.7 0-1.1-.2zm11.6-4.5c-.6-1-.5-1.1.6-1.2l2-.1c1.5-.2 1.8.3.8 1.4-1.2 1.3-2.5 1.3-3.4 0zm334.5-4c0-.2.2-.5.5-.7.3-.2.6 0 .6.3s-.3.6-.6.6-.5-.2-.5-.3zm6.4-.5c.4-.3.9-.5 1-.3.2.1-.1.4-.6.6-.8.3-.9.3-.4-.3zM180 499.3c0-.3.4-.8.9-1.2.6-.5 1-.5 1.5 0s.5.8-.2 1.2c-1 .6-2.2.6-2.2 0zm623.3-5c0-.3.4-.6.8-.6.5 0 1 .3 1.2.6.1.3-.2.5-.8.5-.7 0-1.2-.2-1.2-.5zm-9.4-.6c0-.6 1.5-.7 2 0 0 .2-.3.4-.9.4-.6 0-1-.1-1-.4zm-547.5-.9c-.5-1.3.3-1.5 2.2-.5 1 .4 1.6.9 1.3 1-2.4.3-3.2.2-3.5-.5zm477.4-1.3c0-.3.1-.5.3-.5.1 0 .4.2.6.5.1.3 0 .6-.3.6s-.6-.3-.6-.6zm-8-.5c-.2-.3-.2-.8 0-1 .5-.5 1 .2.7 1-.2.6-.3.6-.6 0zm2 .2c-1-.5-.7-1.3.5-1 .6.2 1.1.6 1.1.8 0 .6-.4.6-1.5.2zm264.8-2.8c-.7-.6-.4-1.3.4-1.3.5 0 .9.4.9.8 0 .9-.7 1.1-1.3.5zM297.4 485c-.1-.2.2-.5.8-.5.6 0 1 .1.8.4-.4.7-1.2.7-1.6.1zm5-1c.2-.4.7-.8 1.2-.8l3.4-.3c1.8-.2 2.3 0 1.7.3-.7.5-.7.6 0 .6.3 0 .5.1.4.3-.2.2-1.9.5-3.7.6-2.8.1-3.3 0-3-.6zM77 482.8c-.4-.6.6-1.3 1.4-.8.6.3.2 1.3-.6 1.3-.3 0-.6-.2-.8-.5zm5.2-14.3c0-.3.3-.7.6-.9.3-.2.4 0 .2.5-.4 1-.8 1.2-.8.4zm4-.3c0-.5.3-.7.5-.5.3.1.4.5.2.8-.5.7-.6.6-.6-.3zm962.2-72c-.5-.4-.6-.6-.3-.6s.9.2 1.4.5c.4.3.5.5.2.5s-.9-.2-1.3-.5zm-907.1-41c0-.3.5-.5 1-.5.7 0 1.2.2 1.2.5s-.5.5-1.1.5c-.6 0-1.1-.3-1.1-.6zm23.1-8.2-1.3-1 3.3-.5c1.8-.2 4.6-.4 6.2-.4 1.6 0 3-.2 3-.4 0-.5 3.2.4 3.7 1 .2.2-.4.2-1.4 0-1-.2-2.3 0-3.3.5-.8.5-2.9.9-4.5 1-1.6 0-2.9.2-2.9.4 0 .8-1.5.5-2.8-.6zm-7 .2c.2-.2.7-.2 1.1 0 .4.1.3.3-.3.3s-1-.1-.8-.3zm-10-7.6c0-.6.1-1 .3-.8.2.2.2.7 0 1.1-.1.4-.3.3-.3-.3zm15-4.7c.2-.2-.2-.9-.8-1.4-1-1-1-1 2.3-2.6 4-1.9 4.4-2 4.4-.5 0 .7-.3 1.1-1 1.1s-.7.1-.1.5c.4.3 1.2.4 1.8.3.5 0 1 0 1 .4 0 .3-.8.5-1.8.5h-2.9c-1 0-1 0-.3.5s.7.6-.1.6c-.5 0-1 .2-1 .5s-.4.6-.8.6c-.5 0-.8-.2-.6-.5zm7.1-4.4c-.5-.4-.5-.6.1-1.1 1-.8 1.6-.1 1 .9-.2.3-.7.4-1 .2zM150.5 307c-.2-.3 0-.5.5-.5.4 0 1 .2 1.1.5.2.3 0 .6-.4.6-.5 0-1-.3-1.2-.6zm11.3-2.5c.8-1 1.1-1 1.1-.3 0 .3-.4.7-.9.8-.7.3-.8.3-.2-.5zm780.3-8.9c.6-.6 4.1-1.1 4.9-.7.4.3.5.5.1.6-3 .3-5.3.4-5 .1zm-3.4-.6c-.5-.3-.1-.5 1-.5.9 0 1.6.2 1.6.5 0 .6-1.7.5-2.6 0zm-14.2-.7c-2.4-.6-8-1-18.8-1.3-3.7-.1-7.2-.5-7.9-.8-.7-.4-3.1-.6-6.1-.5h-5c0-.2 3.2-1.8 3.6-1.8.2 0 .2.3 0 .6s.3.5 1.3.5 1.7-.2 1.7-.5.3-.6.6-.6.4.3.2.7c-.3.5-.2.5.4.1.4-.3 1.2-.5 1.9-.5l4 .2c1.6 0 2.8.2 2.7.5-.2.2 1.2.4 3.1.3 1.9 0 3.8.2 4.4.4.6.4 1 .4 1 0s.2-.5.6-.2c.4.2 2.8.4 5.4.5a85.8 85.8 0 0 1 12 1.3c.5 0-2.1 1.7-2.6 1.6l-2.5-.5zm-22.3-2.8c0-.3-.5-.5-1.1-.5-.6 0-1.2.2-1.4.5-.2.3.3.5 1 .5.8 0 1.5-.2 1.5-.5zm29.5-1.6c-.2-.3-.6-.4-.9-.2-.3.1-.5 0-.5-.3 0-1 .9-1 1.6 0l.4 1c-.2 0-.4-.2-.6-.5zm-11.8-2.2c-.6-.5-1.2-.9-1.3-.8-.2.2-1.5.4-3 .5-2.6.2-5.7-1-5-1.8.7-.6 4.5-.5 5.4.2.8.7 2.4.8 3 0 .7-.5 3.5-.4 3.9.2.5.9-.3 2.8-1.2 2.8-.4 0-1.3-.5-1.8-1zm5.7.5c-.3-.4-.2-.5.2-.3.3.2.7.1 1-.2.4-.8 1.1-.7 1.1.3s-1.8 1-2.3.2zM280 284.2c.2-.2.7-.3 1 0 .5 0 .4.2-.3.2-.6 0-.9 0-.7-.2zm111.4-15.7c0-.3 0-.6.2-.6s.4.3.6.6c.2.3 0 .5-.2.5-.4 0-.6-.2-.6-.5zm12.8 0c-.8-.6-.6-1.6.4-1.3.6.2 1 0 1-.6l.2-1.7c0-.5.6-.9 1.1-1h1.5c.2-.2 1.1-.4 2-.7 2-.5 3.1-1.3 2.7-2-.1-.2.2-.5.8-.5.6 0 1.2.4 1.4.7.2.5.4.5.7.1.9-1 2.5-1.3 3.4-.6.7.6.8.5.4-.1-.3-.6-.2-.7.5-.4.5.2 1.3.3 1.7.3.4 0 1 .5 1.1 1 .2.8.7 1 1.3.9 1.4-.4 1.3-1.8-.1-1.5-1.2.2-1.2.2 0-.3a9 9 0 0 1 2.9-.6c1 0 3.4-.2 5.2-.5a365 365 0 0 1 29.6-3.1 836.3 836.3 0 0 1 24.9-1.8c4.7-.4 12.2-.4 13.2 0l3.2.7c1.3.2 2.4.6 2.4.8 0 .2-.7 1-1.4 1.8-1.1 1.1-1.9 1.4-4.2 1.3-1.6 0-2.7.2-2.5.5 0 .3 2 .6 4.4.6 3.7 0 6.1.8 5.3 1.6-.4.3-7.7.7-7.7.3 0-.1-1.7-.2-3.7-.1-2 0-5.2 0-7-.3-1.7-.3-3.2-.4-3.4-.3-.1.2-1.3.3-2.6.4-1.3 0-3 .3-3.9.6-.9.2-1.8.1-2.2-.2-.4-.3-3.1-.6-6-.7-3.7-.1-5.3-.3-5-.7.2-.4-.1-.3-.6.1-.7.6-1.7.7-3.2.4-1.5-.2-2.1-.1-1.9.2.4.7.3.7-4.7.8-2 0-4.1.3-4.8.5-.7.3-1.3.3-1.3 0 0-.2-.6-.4-1.3-.4-.8 0-1.4.2-1.4.4s-.4.4-.9.4c-.4 0-.7-.2-.5-.5.3-.6-5.3.3-5.7 1-.8 1.1-11.1 2.3-11.1 1.2 0-.3-.3-.6-.6-.6s-.5.2-.3.5c.5.8-.8 1.3-1.6.6-.5-.4-.8-.4-1 .2-.2.4-1 .6-2.5.6-1.3-.1-2.3 0-2.3.3 0 1-2.9.4-3.4-.7-.3-.5-.8-.8-1-.6-.4.1-.5.5-.3.7.1.3-.1.6-.5.8-.5.2-1 0-1.2-.2-.2-.3-.9-.2-1.8.3-1.7 1-7 2-7.7 1.4zm-7.9-2.5c0-1 .4-1 .8-.3.2.3.1.6-.2.8-.3.2-.6 0-.6-.5zm2.1-1c.3-.3 1-.4 1.3-.3.4.2.2.4-.6.6-.9.3-1 .2-.7-.2zm190.2-1.3c-.7-.2-1.2-.5-1.2-.7 0-.7 2.4-.3 2.6.4v.6l-1.4-.3zm-11.4-1.3c1.5-.6 2.3-.6 1.3 0-.4.3-1.2.5-1.6.5-.6 0-.5-.2.3-.5zm3.3 0c-.2-.2.2-.3.8-.2 1.3.4 1.4.8.3.8-.4 0-1-.3-1.1-.5zm-71-1.2c-1-.9-.6-1 6.3-1 4 0 7.8-.1 8.5-.3.7 0 1.3 0 1.5.3.2.2 1 .4 2 .3 2.5-.2 2.5.6 0 .9-1.2.1-2 0-2-.2.5-.8-.3-.5-1.2.4-1 1-3.2 1-3.8.2-.2-.3-.7-.3-1.4 0-1.2.7-2.4.3-1.8-.6.2-.4.1-.5-.4-.1-.4.2-2.1.6-3.8.7-2.4.3-3.2.1-4-.6zm44.2.7c0-.4.1-.6.2-.6.2 0 .4.2.6.6.2.3 0 .5-.2.5-.3 0-.6-.2-.6-.5zm-22.1-1.2c-.5-.3-.6-.5-.2-.5.4 0 .8.2 1 .5.5.7.3.7-.8 0zm215.6 0c.3-.5-1.8-1-2.2-.6-.6.6-3 .7-3 .1 0-.3-1.6-.4-4.3-.2-3.4.3-4.7.1-6.2-.6-1.1-.5-1.6-.8-1-.6.5.1 1 0 1-.3.2-.2.6-.5 1-.6.5-.1 1-.4 1.3-.7.2-.3.4 0 .4.6 0 1.2.1 1.2 1.5.4 1.4-.7 1.6-.7 2.3.2.7 1 .8 1 .5 0-.3-.7 0-1 1-1 .7 0 1.5.5 1.9 1 .3.5.5.7.5.3 0-.7 1.7-1 1.7-.3 0 .2 1.9.4 4.2.4 2.3 0 4.3.2 4.4.4.2.2.8.4 1.5.4 1 0 1 .2.5.7-.7.7-7.4 1-7 .4zm9.1 0c0-.3.2-.5.4-.5l2.2-.3c2.2-.3 3 .6.9 1s-3.5.3-3.5-.2zm-39.7-1.9c0-.3-1-.5-2.1-.5-1.2 0-2.3.2-2.5.5-.3.4-.4.4-.4 0 0-.7-3.3-.8-3.3-.2 0 .3-.3.4-.5.2-.6-.3-5.4-.8-10.6-1l-3-.4c0-.3-7.3-.4-7.7 0-.9.7-6.4 1.1-6.4.5 0-.2-.4-.5-.8-.5-.5 0-.8.3-.8.6s-4 .4-10.4.2l-11.7-.2c-.7 0-2.1-.2-3.2-.5-1-.3-1.8-.3-1.8 0 0 .5-2 .4-2.4-.1-.2-.2-2.7-.2-5.6-.1-3.5.1-5.6 0-6.1-.5-.6-.5-.8-.4-.8.2 0 .4-.2.5-.4.1a27 27 0 0 0-7.9-.6 6323.2 6323.2 0 0 1-76.7-1.1c0 .2-.3.4-.6.4s-.4-.3-.2-.6c.1-.3 0-.5-.6-.5-.4 0-.8-.3-.8-.6s-.3-.5-.6-.5-.4.2-.3.5c.2.3-.4.6-1.4.6-1.4 0-1.7-.2-1-.6.6-.4.6-.5 0-.5-.5 0-.5-.2.2-.9.4-.4 1.3-.8 2-.8.6 0 1-.3 1-.6s.5-.4 1.2-.2c.8.3 1 .2.8-.2-.2-.4-.2-.6 0-.6s.5.5.7 1l.5 1.2 1.4-1.1c1-.8 1.6-1 1.9-.5.2.4.5.4.8-.2.4-.6 4.2-.7 20.2-.7a1146.6 1146.6 0 0 1 49.9 1c20.2.7 25.5 1 26 1.2a13 13 0 0 0 6 .8c.5-.3 1-.2 1.2.2.3.5.6.4 1-.2.3-.4.5-.6.5-.3 0 .4 3.5.6 9.3.5 9.2 0 25 .9 25 1.4 0 .2 1.9.3 4.3.3 4 0 13.3.7 15 1.2.5.2.5.4 0 1-.6.8-.6.9 0 .7l2.4-.6c1-.2 1.4-.6 1.2-1-.2-.4 0-.3.3.2.5.7 1.2.8 3.7.4 1.8-.2 3.5-.2 4 .1.6.3 1.7.6 2.6.6 1.4 0 1.4.1.2.3-1 .2-1.2.4-.6.8.9.5.2.6-7.6.7-2.7 0-4.5-.2-4.5-.5zm-160.5-5c-.2-.4-.5-.6-.8-.5-.8.5-.6 1.4.3 1.4.5 0 .7-.4.5-.9zm-32.2 2c.6-1.1.5-1.2-.2-1-.8.4-.9.2-.3-.8l.7-1.2.5 1.2c.6 1.4 1.8 1.6 2.2.4.2-.5.2-.8 0-.8-.3 0-.5-.4-.5-.9 0-.6.5-.7 2.6-.4 1.9.2 2.7.1 2.7-.3s.9-.6 2-.6c1.3 0 1.8.2 1.6.6-.3.4 0 .4.7 0 1-.6 1.1-.5.9.2-.2.4-.6.8-.8.8-.3 0-.5.3-.5.6 0 1.1 1 .5 1.6-1.1.8-1.9.8-1.9 2.2-1.2.7.4 1 1 .7 2-.1.8 0 1.3.2 1.3.3-.1.6 0 .8.3.2.4-1.2.6-3.2.7-3.2 0-3.6 0-4.1-1.3-.6-1.3-2.6-1.8-2.6-.7 0 .3.2.4.5.2.3-.1.4 0 .2.5s-.6.7-1.2.5c-.5-.2-.7 0-.4.3.4.7-1.4 1.3-3.6 1-.7 0-1.8.1-2.4.4-.9.4-.9.3-.3-.8zm15.1-2.1c.2-.3 0-.5-.5-.5-.4 0-.6.2-.5.5l.5.4.5-.4zm-22.5 2.1c-.2-.2.2-.6.8-.7.7-.2 1-.6.7-1.2-.2-.5 0-.9.2-.9.8 0 .6 1.8-.2 2.6-.8.9-1.1.9-1.5.2zm3.3-1.5.5-.7s.3.3.4.7c.2.4 0 .7-.4.7s-.6-.3-.5-.7zm2.2-1.5c.6-.5 1.6-.9 2.3-.9 1.3 0 2.1.8 1.3 1.4-.3.1-.6 0-.7-.4-.2-.4-.5-.4-1.4 0-1.7 1-2.8.8-1.5-.1zm-7.4-.1c.2-.2.7-.2 1.1 0 .4.1.3.2-.3.3-.6 0-1-.1-.8-.3zm29.2-.2c-.8-.5-.7-.6 0-.6.6 0 1 .3 1 .6 0 .6 0 .6-1 0zm-3-.9c-.3-.7-.1-.7.8-.2 1.2.7 1.4 1 .3 1-.4 0-1-.3-1.1-.8z"/></svg>